<svg xmlns="http://www.w3.org/2000/svg" width="48" height="48" viewBox="0 0 48 48"><path d="M 14.314589076881,18.409740195482 C 7.797995453218,14.345008948897 2.730539600000,24.000000000000 2.730539600000,24.000000000000 L 2.730539600000,44.724138000000 L 44.927529000000,45.334642000000 L 44.927529000000,35.633492000000 C 44.927529000000,35.633492000000 41.145129754136,35.873208306637 36.734854405101,35.317706227322 C 36.228249102948,37.498838478373 35.714484924787,39.479436730837 33.683056000000,40.517855000000 C 30.630205000000,42.078400000000 28.832481000000,43.570706000000 23.829031000000,42.892295000000 C 18.825582000000,42.213883000000 14.890928000000,39.567814000000 16.858255000000,37.057890000000 C 18.825582000000,34.547967000000 21.539558000000,34.073278000000 22.421361000000,34.208761000000 C 23.132944869648,34.318091925758 25.700294653811,34.271124699486 27.841329773830,32.743507113925 C 23.074889248978,30.065439078786 21.683878963535,25.613693479586 17.965172692930,21.560526935763 C 17.573963395788,23.301491455629 17.222754443759,24.841159839248 17.061977000000,25.457321000000 C 16.654864000000,27.017534000000 17.807964000000,27.137380000000 15.162226000000,29.256160000000 C 12.517389237820,31.374217264224 12.245375104110,38.138804344795 12.245190094522,38.143412644332 C 9.734938509380,36.108181000255 10.006236528831,36.108510612443 8.785228600000,32.512733000000 C 7.564220200000,28.916954000000 5.732046200000,27.627707000000 7.699704200000,25.524897000000 C 9.667362200000,23.422087000000 9.005844500000,22.540285000000 11.905987000000,20.640534000000 C 13.181190227522,19.805206705212 13.899012312997,19.140430517448 14.314589076881,18.409740195482 Z" style="fill:#ff0000;stroke:#000000;stroke-width:1.99937;stroke-linecap:round;stroke-linejoin:round" /></svg>