<svg xmlns="http://www.w3.org/2000/svg" viewBox="0 0 24 24">
	<path class="color-raster" d="M23,18c0,1.1-0.9,2-2,2h-4c-1.1,0-2-0.9-2-2v-2c0-1.1,0.9-2,2-2h4c1.1,0,2,0.9,2,2V18z" />
	<path class="color-raster" d="M23,8c0,1.1-0.9,2-2,2h-4c-1.1,0-2-0.9-2-2V6c0-1.1,0.9-2,2-2h4c1.1,0,2,0.9,2,2V8z" />
	<path class="color-raster" d="M9,13c0,1.1-0.9,2-2,2H3c-1.1,0-2-0.9-2-2v-2c0-1.1,0.9-2,2-2h4c1.1,0,2,0.9,2,2V13z" />
	<path class="color-solid" d="M12.9,9.3c0.2-1,0.4-1.6,1.1-1.8v-1l-0.1,0c-1.5,0.3-1.7,1.6-2,2.6c-0.3,1.2-0.5,2.1-1.9,2.4v1c1.5,0.2,1.7,1.2,1.9,2.4c0.2,1,0.5,2.3,2,2.6l0.1,0v-1c-0.7-0.2-0.9-0.8-1.1-1.8c-0.2-0.9-0.4-2-1.4-2.7C12.5,11.3,12.7,10.2,12.9,9.3z" />
</svg>
