<svg xmlns="http://www.w3.org/2000/svg" viewBox="0 0 12 12">
	<path d="M10,9c0,1.1-0.9,2-2,2H3c-1.1,0-2-0.9-2-2V6c0-1.1,0.9-2,2-2l1-1H3C1.3,3,0,4.3,0,6v3c0,1.7,1.3,3,3,3h5c1.7,0,3-1.3,3-3V6l-1,1V9z" />
	<path d="M11.4,0.8l-0.2-0.2C10.9,0.2,10.3,0,9.8,0s-1,0.2-1.4,0.6L4.2,4.8C3.4,5.6,3,6.6,3,7.7V9h1.3c1.1,0,2.1-0.4,2.8-1.2l4.2-4.2C12.2,2.8,12.2,1.5,11.4,0.8z M6.5,7.1C6,7.5,5.5,7.8,4.9,7.9L4.1,7.1C4.2,6.5,4.5,6,4.9,5.5l2.8-2.8l1.6,1.6L6.5,7.1z M10.7,2.9l-0.4,0.4L8.7,1.7l0.4-0.4C9.3,1.1,9.6,1,9.8,1s0.5,0.1,0.7,0.3l0.2,0.2C11.1,1.9,11.1,2.5,10.7,2.9z" />
</svg>
