<svg xmlns="http://www.w3.org/2000/svg" viewBox="0 0 12 12">
	<path class="bright" d="M9,7H8V5h1c1.1,0,2-0.9,2-2c0-1.1-0.9-2-2-2S7,1.9,7,3v1H5V3c0-1.1-0.9-2-2-2S1,1.9,1,3c0,1.1,0.9,2,2,2h1v2H3C1.9,7,1,7.9,1,9c0,1.1,0.9,2,2,2s2-0.9,2-2V8h2v1c0,1.1,0.9,2,2,2s2-0.9,2-2C11,7.9,10.1,7,9,7z M8,3c0-0.55,0.45-1,1-1s1,0.45,1,1S9.55,4,9,4H8V3z M3,4C2.45,4,2,3.55,2,3s0.45-1,1-1s1,0.45,1,1v1H3z M4,9c0,0.55-0.45,1-1,1S2,9.55,2,9s0.45-1,1-1h1V9z M5,7V5h2v2H5z M9,10c-0.55,0-1-0.45-1-1V8h1c0.55,0,1,0.45,1,1S9.55,10,9,10z" />
</svg>
