<svg xmlns="http://www.w3.org/2000/svg" viewBox="0 0 12 12">
	<path d="M4.68,9.32L4,10c-0.53,0.53-1.47,0.53-2,0C1.73,9.73,1.59,9.38,1.59,9S1.73,8.27,2,8l2.5-2.5c0.27-0.27,0.62-0.41,1-0.41s0.73,0.15,1,0.41l1-1c-1.07-1.07-2.93-1.07-4,0L1,7C0.47,7.53,0.17,8.24,0.17,9S0.47,10.47,1,11s1.24,0.83,2,0.83S4.47,11.53,5,11l1.27-1.27C5.71,9.7,5.17,9.56,4.68,9.32z" />
	<path d="M11,1C9.93-0.07,8.07-0.07,7,1L5.7,2.3c0.56,0.03,1.11,0.16,1.61,0.39L8,2c0.27-0.27,0.62-0.41,1-0.41S9.73,1.73,10,2s0.41,0.62,0.41,1S10.27,3.73,10,4L7.5,6.5c-0.53,0.53-1.47,0.53-2,0l-1,1c0.53,0.53,1.24,0.83,2,0.83s1.47-0.29,2-0.83L11,5c0.53-0.53,0.83-1.24,0.83-2S11.53,1.53,11,1z" />
</svg>
