<svg viewBox="0 0 16 16" xmlns="http://www.w3.org/2000/svg">
	<path d="M11,6v7c0,0.5-0.4,1-0.9,1H4.9C4.4,14,4,13.5,4,13V6H11z M12,5H3v8c0,1.1,0.8,1.9,1.8,2h0h5.3h0c1-0.1,1.8-1,1.8-2V5z" />
	<path d="M12,3h-2c0-1.1-0.9-2-2-2H7C5.9,1,5,1.9,5,3H3C2.4,3,2,3.4,2,4h11C13,3.4,12.6,3,12,3 M7,2h1c0.6,0,1,0.4,1,1H6C6,2.4,6.4,2,7,2" />
	<path d="M6,12.5C6,12.8,5.8,13,5.5,13S5,12.8,5,12.5v-5C5,7.2,5.2,7,5.5,7S6,7.2,6,7.5V12.5z" />
	<path d="M8,12.5C8,12.8,7.8,13,7.5,13S7,12.8,7,12.5v-5C7,7.2,7.2,7,7.5,7S8,7.2,8,7.5V12.5z" />
	<path d="M10,12.5c0,0.3-0.2,0.5-0.5,0.5S9,12.8,9,12.5v-5C9,7.2,9.2,7,9.5,7S10,7.2,10,7.5V12.5z" />
</svg>
