<svg xmlns="http://www.w3.org/2000/svg" width="48" height="48" viewBox="0 0 48 48"><path d="M 47.000000000000,24.000000000000 A 23.000000000000 23.000000000000 0.000000000000 0 0 24.000000000000,1.000000000000 A 23.000000000000 23.000000000000 0.000000000000 0 0 1.000000000000,24.000000000000 A 23.000000000000 23.000000000000 0.000000000000 0 0 24.000000000000,47.000000000000 A 23.000000000000 23.000000000000 0.000000000000 0 0 47.000000000000,24.000000000000 Z M 37.909023000000,24.000000000000 A 13.909023000000 13.909023000000 0.000000000000 0 1 24.000000000000,37.909023000000 A 13.909023000000 13.909023000000 0.000000000000 0 1 10.090978000000,24.000000000000 A 13.909023000000 13.909023000000 0.000000000000 0 1 24.000000000000,10.090978000000 A 13.909023000000 13.909023000000 0.000000000000 0 1 37.909023000000,24.000000000000 Z" style="fill:#ff0000;stroke:#000000;stroke-width:2;stroke-linecap:round;stroke-linejoin:round" /></svg>