<svg xmlns="http://www.w3.org/2000/svg" viewBox="0 0 24 24">
	<circle style="fill:#FFFFFF;" cx="10.57" cy="13.36" r="1.75" />
	<path style="fill:#D6536E;" d="M16.87,7.06c-1.51-1.57-3.35-2.78-5.4-3.52c0.58,2.14,1.72,4.07,3.31,5.61c1.41,1.54,3.26,2.61,5.3,3.05C19.5,10.22,18.39,8.44,16.87,7.06z" />
	<path style="fill:#FFFFFF;" d="M9.88,13.67C4.27,1.33,5.35,0.71,5.93,0.37c0.83-0.48,1.71,0.04,4.74,4.32L9.44,5.56C8.31,3.97,7.57,3.04,7.08,2.49c0.57,2.14,2.39,6.66,4.16,10.55L9.88,13.67z" />
	<path style="fill:#FFFFFF;" d="M17.32,6.6c-1.72-1.69-3.77-3.01-6.01-3.89L0,14.02c0.88,2.24,2.2,4.29,3.89,6.01c1.72,1.69,3.77,3.01,6.01,3.89l11.31-11.31h0C20.33,10.37,19.01,8.32,17.32,6.6z M9.55,22.15c-1.7-0.79-3.26-1.86-4.6-3.17c-1.31-1.35-2.38-2.9-3.17-4.61l9.08-9.08c0.87,1.65,1.98,3.16,3.29,4.49c1.33,1.31,2.84,2.42,4.49,3.29L9.55,22.15z M15.2,8.72c-1.34-1.37-2.46-2.95-3.3-4.67c1.74,0.81,3.34,1.92,4.72,3.26c1.34,1.38,2.45,2.97,3.26,4.71C18.15,11.18,16.57,10.07,15.2,8.72z" />
	<path style="fill:#D6536E;" d="M23.32,17.36c-0.64-1.77-1.39-3.49-2.27-5.16c-0.47-0.44-1.41-0.63-1.71-1.23c-0.45-0.51-1.71-0.4-0.79,0.32c1.39,1.07,1.7,1.14,1.62,2.35c-0.26,1.3-0.78,2.53-1.53,3.62c-4.05,6.65,1.99,6.65,1.99,6.65S25.75,23.92,23.32,17.36z" />
</svg>
