<svg xmlns="http://www.w3.org/2000/svg" viewBox="0 0 16 16">
	<path d="M5.5,10.2c0.1,0.2,0,0.3-0.1,0.4c-0.2,0.1-0.3,0-0.4-0.1c0,0,0,0,0,0L2.7,6.7c-0.1-0.2,0-0.3,0.1-0.4c0.2-0.1,0.3,0,0.4,0.1L5.5,10.2z M14.9,14.9L14.9,14.9C14.9,14.9,14.9,15,14.9,14.9C14.8,15,14.8,15,14.9,14.9L14.9,14.9c-0.5,0.2-1,0.4-1.5,0.5c-0.5,0.1-1.1,0.2-1.6,0.2c-0.5,0.1-1.1,0.1-1.6,0c-0.5,0-1.1-0.1-1.6-0.1l-1.6-0.1c-1.7,0-3.9-0.1-4.4-0.1s-1.1-0.2-1.1-0.3c0-0.1,0.3-0.2,0.6-0.2c0.5-0.1,1.1-0.2,1.7-0.3c0.6-0.1,2-0.2,4.1-0.2c0.8,0,1.8,0,1.8,0c0.6,0,1,0,1.9,0c0.7,0,1.1,0,1.2,0c0.3,0,0.6,0.1,0.9,0.2l-2.6-1.9c-0.2,0.1-0.4,0.2-0.7,0.2H4.5c-0.5,0-0.9-0.2-1.1-0.6l-2.9-5c-0.2-0.4-0.2-0.9,0-1.3l2.9-5C3.6,0.5,4,0.3,4.5,0.3h5.8c0.5,0,0.9,0.2,1.1,0.6l2.9,5l0,0l0,0c0,0.1,0.1,0.2,0.1,0.3c0,0,0,0.1,0,0.1c0,0.1,0,0.1,0,0.2c0,0,0.7,7.2,0.7,7.8v0C15.2,14.6,15.1,14.8,14.9,14.9L14.9,14.9z M4.3,1.9L4.2,2l3.6,6.2c0.4-0.1,0.9-0.2,1.4-0.2l0.9-1.3l1.6-0.2c0.2-0.4,0.5-0.8,0.8-1.1l-2.1-3.7c-0.1-0.2-0.3-0.3-0.5-0.3H4.8C4.6,1.6,4.4,1.7,4.3,1.9z M9.4,11.6l-2-1.4C7.4,10.1,7.3,10,7.3,10l0,0L3.5,3.3l-1.7,3c-0.1,0.2-0.1,0.4,0,0.6l2.6,4.5c0.1,0.2,0.3,0.3,0.5,0.3L9.4,11.6z M13.5,11.3l-0.5-4.6c-0.3,0.3-0.5,0.7-0.7,1l-1.6,0.2L9.8,9.2c-0.4,0-0.8,0-1.3,0.1l3.7,2.7C12.5,11.6,13,11.3,13.5,11.3L13.5,11.3z" />
</svg>