<svg xmlns="http://www.w3.org/2000/svg" viewBox="0 0 16 16">
	<polygon points="0,6.5 2.9,11.5 5.7,6.5" />
	<path d="M8.2,12.6c-0.2,0-0.4,0-0.6,0c-0.9-0.1-1.8-0.4-2.6-0.8l0.7-1.2c0.6,0.4,1.3,0.6,2,0.6c1.3,0.1,2.6-0.3,3.6-1.1s1.6-2,1.7-3.3c0.2-2.7-1.8-5-4.4-5.3C7.3,1.3,6.1,1.7,5.1,2.6c-1,0.8-1.6,2-1.7,3.3c0,0.5,0,1,0.1,1.5L2.1,7.7c-0.2-0.7-0.2-1.3-0.2-2c0.2-1.7,0.9-3.2,2.2-4.3C5.5,0.4,7.1-0.1,8.8,0c3.5,0.3,6,3.3,5.7,6.8c-0.1,1.7-0.9,3.2-2.2,4.3C11.1,12.1,9.7,12.6,8.2,12.6z" />
	<path d="M15.8,14.4l-3.3-4L11,11.7l3.3,4c0.3,0.4,1,0.5,1.4,0.1C16.1,15.4,16.1,14.8,15.8,14.4z" />
</svg>
