<svg viewBox="0 0 24 24">
	<rect x="2.5" y="4.5" style="fill:#D6536E;" width="19" height="15" />
	<path style="fill:#FFFFFF;" d="M20.5,4h-17C2.67,4,2,4.67,2,5.5v13C2,19.33,2.67,20,3.5,20h17c0.83,0,1.5-0.67,1.5-1.5v-13C22,4.67,21.33,4,20.5,4z M5.12,14.73C5.4,15.44,6.05,15.93,6.8,16c-0.75,0.07-1.4,0.56-1.68,1.27h0c-0.19-0.55-0.58-1-1.1-1.27C4.54,15.74,4.93,15.28,5.12,14.73z M4.02,12c0.52-0.26,0.91-0.72,1.1-1.27C5.4,11.44,6.05,11.93,6.8,12c-0.75,0.07-1.4,0.56-1.68,1.27h0C4.93,12.72,4.54,12.26,4.02,12z M5.12,9.27L5.12,9.27c-0.19-0.55-0.59-1-1.1-1.27c0.52-0.26,0.91-0.72,1.1-1.27C5.4,7.44,6.05,7.93,6.8,8C6.05,8.07,5.4,8.56,5.12,9.27z M21,18.5c0,0.28-0.22,0.5-0.5,0.5h-1.45c0.53-0.03,0.96-0.46,0.96-1c0-0.56-0.45-1.01-1.01-1.01s-1.01,0.45-1.01,1.01c0,0.54,0.43,0.97,0.96,1h-2.94c0.25-0.26,0.41-0.61,0.41-1c0-0.79-0.64-1.42-1.42-1.42s-1.42,0.64-1.42,1.42c0,0.39,0.16,0.74,0.41,1h-1.55c0.2-0.28,0.32-0.63,0.32-1c0-0.97-0.78-1.75-1.75-1.75S9.25,17.03,9.25,18c0,0.37,0.12,0.72,0.32,1H8.73c0.21-0.35,0.32-0.76,0.28-1.19C8.92,16.85,8.16,16.09,7.2,16c1.1-0.1,1.91-1.09,1.81-2.19C8.92,12.85,8.16,12.09,7.2,12c1.1-0.1,1.91-1.09,1.81-2.19C8.92,8.85,8.16,8.09,7.2,8c1.1-0.1,1.91-1.09,1.81-2.19C8.98,5.51,8.88,5.24,8.74,5h0.83c-0.2,0.28-0.32,0.63-0.32,1c0,0.97,0.78,1.75,1.75,1.75c0.97,0,1.75-0.78,1.75-1.75c0-0.37-0.12-0.72-0.32-1h1.55c-0.25,0.26-0.41,0.61-0.41,1c0,0.79,0.64,1.42,1.42,1.42S16.42,6.79,16.42,6c0-0.39-0.16-0.74-0.41-1h2.94c-0.53,0.03-0.96,0.46-0.96,1c0,0.56,0.45,1.01,1.01,1.01S20.01,6.56,20.01,6c0-0.54-0.43-0.97-0.96-1h1.45C20.78,5,21,5.22,21,5.5V18.5z M16.42,14c0,0.79-0.64,1.42-1.42,1.42s-1.42-0.64-1.42-1.42c0-0.79,0.64-1.42,1.42-1.42S16.42,13.21,16.42,14z M20.01,14c0,0.56-0.45,1.01-1.01,1.01s-1.01-0.45-1.01-1.01s0.45-1.01,1.01-1.01S20.01,13.44,20.01,14z M20.01,10c0,0.56-0.45,1.01-1.01,1.01s-1.01-0.45-1.01-1.01S18.44,8.99,19,8.99S20.01,9.44,20.01,10z M16.42,10c0,0.79-0.64,1.42-1.42,1.42s-1.42-0.64-1.42-1.42c0-0.79,0.64-1.42,1.42-1.42S16.42,9.21,16.42,10z M12.75,10c0,0.97-0.78,1.75-1.75,1.75c-0.97,0-1.75-0.78-1.75-1.75c0-0.97,0.78-1.75,1.75-1.75S12.75,9.03,12.75,10z M12.75,14c0,0.97-0.78,1.75-1.75,1.75c-0.97,0-1.75-0.78-1.75-1.75c0-0.97,0.78-1.75,1.75-1.75S12.75,13.03,12.75,14z" />
</svg>
