<svg viewBox="0 0 16 16" xmlns="http://www.w3.org/2000/svg">
  <path d="m 7.2857146,1.9999998 q 2.4033617,0 3.6302524,0.672269 1.226891,0.6722689 1.226891,2.3697484 0,1.0252098 -0.487422,1.7310921 -0.470588,0.7058824 -1.361344,0.8571429 v 0.084034 q 0.605042,0.1176454 1.092437,0.4201682 0.487369,0.302521 0.773109,0.8739497 0.28574,0.5714287 0.28574,1.5126049 0,1.630253 -1.176471,2.554622 Q 10.092438,14 8.0420174,14 H 3.5546217 V 1.9999998 Z m 0.2857399,4.7563027 q 1.1092438,0 1.529412,-0.3529398 0.4369747,-0.3529399 0.4369747,-1.0252102 0,-0.6890759 -0.5042019,-0.9915973 Q 8.5294378,4.0840342 7.4370005,4.0840342 H 6.0924637 V 6.7563025 Z M 6.0924637,8.7731096 V 11.89916 h 1.6638657 q 1.1428574,0 1.5966388,-0.436974 0.4538083,-0.453782 0.4538083,-1.193278 0,-0.6722687 -0.4705883,-1.0756302 Q 8.88238,8.7731096 7.6723225,8.7731096 Z"/>
</svg>
