<svg xmlns="http://www.w3.org/2000/svg" viewBox="0 0 16 16">
	<path d="M15.36,14.58l-.99-.64-.39-1.78-1.99-.99v-1.88l1.55.77,1.77-.88c.25-.12.35-.42.22-.67-.12-.25-.42-.35-.67-.22l-1.32.66-1.55-.77v-1.17c0-.05-.02-.1-.03-.15l1.95-.98,1.07-2.15c.12-.25.02-.55-.22-.67-.25-.12-.55-.02-.67.22l-.93,1.85-1.85.93s0,0-.01.01c-.1-.03-.2-.06-.31-.06h-5c-.1,0-.18.03-.27.06,0,0,0,0,0,0l-1.85-.93-.93-1.85c-.12-.25-.42-.35-.67-.22-.25.12-.35.42-.22.67l1.07,2.15,1.91.95c-.01.06-.03.11-.03.17v1.19l-1.5.75-1.32-.66c-.25-.12-.55-.02-.67.22-.12.25-.02.55.22.67l1.77.88,1.5-.75v1.88l-1.94.97-.38,1.78-.99.64c-.23.15-.3.46-.15.69.1.15.26.23.42.23.09,0,.19-.03.27-.08l1.34-.87.37-1.71,1.16-.58c.31,1.4,1.47,2.48,2.91,2.69v-5.95h1v5.95c1.45-.21,2.61-1.3,2.91-2.71l1.2.6.37,1.71,1.34.87c.08.05.18.08.27.08.16,0,.32-.08.42-.23.15-.23.08-.54-.15-.69z" />
	<path d="M4.97,1.05c1.34.17,1.81,1.32,1.97,2.01-.57.46-.94,1.15-.94,1.94h5c0-.77-.35-1.45-.9-1.9.15-.68.61-1.87,1.98-2.04.27-.03.47-.28.43-.56-.03-.27-.3-.46-.56-.43-1.66.21-2.45,1.48-2.76,2.55-.22-.06-.45-.11-.69-.11-.23,0-.44.04-.65.1C7.54,1.53,6.74.27,5.09.06c-.28-.03-.52.16-.56.43s.16.52.43.56z" />
</svg>
