<svg xmlns="http://www.w3.org/2000/svg" viewBox="0 0 16 16">
	<path d="M11,15c-.55,0-1-.45-1-1s.45-1,1-1c.92,0,1.11-.2,1.11-.2.11-.13-.03-.86-.09-1.21-.17-.96-.46-2.52.66-3.59-1.12-1.07-.83-2.63-.66-3.59.06-.35.2-1.08.09-1.21,0,0-.19-.2-1.11-.2-.55,0-1-.45-1-1s.45-1,1-1c.81,0,1.96.1,2.65.92.71.85.51,1.91.34,2.85-.26,1.41-.35,1.94,1.21,2.25.47.09.8.5.8.98s-.34.89-.8.98c-1.56.31-1.46.84-1.21,2.25.17.94.37,2-.34,2.85-.69.82-1.84.92-2.65.92z" />
	<path d="M5,15c-.81,0-1.96-.09-2.65-.92-.71-.84-.51-1.91-.34-2.85.26-1.41.35-1.94-1.21-2.25-.47-.09-.8-.5-.8-.98s.34-.89.8-.98c1.56-.31,1.46-.84,1.21-2.25-.17-.94-.36-2,.34-2.85.69-.82,1.84-.92,2.65-.92.55,0,1,.45,1,1s-.45,1-1,1c-.92,0-1.11.2-1.11.2-.11.13.03.86.09,1.21.18.97.46,2.52-.66,3.59,1.11,1.07.83,2.63.66,3.59-.06.35-.2,1.08-.09,1.21,0,0,.19.2,1.11.2.55,0,1,.45,1,1s-.45,1-1,1z" />
</svg>
