<svg xmlns="http://www.w3.org/2000/svg" viewBox="0 0 16 16">
	<path d="M12,9c-.39,0-.65.06-.88.06-.5,0-.89-.26-2.25-1.92L3,0s-1.01.54-.04,2.27c3.12,5.6,3.62,7,4.9,7.19,1.08.16,1.42.82,1.23,1.88-.05.21-.08.44-.08.67,0,1.66,1.34,3,3,3s3-1.34,3-3-1.34-3-3-3ZM8,8.75c-.41,0-.75-.34-.75-.75s.34-.75.75-.75.75.34.75.75-.34.75-.75.75ZM12,13.8c-.99,0-1.8-.81-1.8-1.8s.81-1.8,1.8-1.8,1.8.81,1.8,1.8-.81,1.8-1.8,1.8z" />
	<path d="M7.13,9.97c-.48-.22-.89-.62-1.37-1.32-.37.32-.61.41-.88.41-.23,0-.49-.06-.88-.06-1.66,0-3,1.34-3,3s1.34,3,3,3,3-1.34,3-3c0-.23-.03-.45-.08-.67-.11-.58-.05-1.04.21-1.36ZM4,13.8c-.99,0-1.8-.81-1.8-1.8s.81-1.8,1.8-1.8,1.8.81,1.8,1.8-.81,1.8-1.8,1.8z" />
	<path d="M13,0s-.01.02-4.55,5.53l.95,1.16c.28.34.52.62.71.84.65-1.09,1.52-2.75,2.92-5.26.97-1.73-.04-2.27-.04-2.27z" />
</svg>
