<svg xmlns="http://www.w3.org/2000/svg" viewBox="0 0 16 16">
	<path d="M6.5,4c.83,0,1.5.67,1.5,1.5s-.67,1.5-1.5,1.5-1.5-.67-1.5-1.5.67-1.5,1.5-1.5M6.5,3c-1.38,0-2.5,1.12-2.5,2.5s1.12,2.5,2.5,2.5,2.5-1.12,2.5-2.5-1.12-2.5-2.5-2.5h0z" />
	<path d="M10,10c.55,0,1,.45,1,1s-.45,1-1,1-1-.45-1-1,.45-1,1-1M10,9c-1.1,0-2,.9-2,2s.9,2,2,2,2-.9,2-2-.9-2-2-2h0z" />
	<polygon points="3 14 3 13 2 13 2 15 4 15 4 14 3 14" />
	<polygon points="13 13 13 14 12 14 12 15 14 15 14 13 13 13" />
	<polygon points="2 1 2 3 3 3 3 2 4 2 4 1 2 1" />
	<polygon points="12 1 12 2 13 2 13 3 14 3 14 1 12 1" />
</svg>
