<svg xmlns="http://www.w3.org/2000/svg" viewBox="0 0 16 16">
	<path d="M13.2,5.2l1.7-1.7c0.6-0.6,0.7-1.6,0.1-2.3c0,0,0,0-0.1-0.1l0,0c-0.7-0.7-1.7-0.7-2.4,0c0,0,0,0,0,0l-1.7,1.7l-0.7-0.7c-0.2-0.3-0.7-0.3-0.9,0c0,0,0,0,0,0l-1,1l4.7,4.7l1-1c0.3-0.2,0.3-0.7,0-0.9c0,0,0,0,0,0L13.2,5.2z" />
	<path d="M10.4,6.6l-6.5,6.5c-0.1,0.1-0.4,0.1-0.6,0.1c-0.2,0-0.5,0.1-0.7,0.1c0.1-0.3,0.1-0.5,0.1-0.7s0.1-0.5,0.1-0.6l6.5-6.5L8.7,4.9l-6.5,6.5c-0.6,0.6-0.2,1.9-1.1,2.9l0.6,0.6c0.9-0.9,2.3-0.5,2.9-1.1s6.5-6.5,6.5-6.5L10.4,6.6z" />
</svg>
