<svg xmlns="http://www.w3.org/2000/svg" viewBox="0 0 16 16">
	<rect y="7" width="3" height="3" />
	<rect x="7" width="3" height="3" />
	<rect x="15" y="8" width="1" height="1" />
	<rect x="8" y="15" width="1" height="1" />
	<path d="M11,3.53c1.71.86,2.92,2.58,3.05,4.6.11-.43.41-.79.81-.98-.45-2.11-1.91-3.84-3.86-4.65v1.03z" />
	<path d="M3.53,6c.54-1.07,1.41-1.93,2.47-2.47v-1.03c-1.58.66-2.84,1.92-3.5,3.5h1.03z" />
	<path d="M14.05,8.87c-.18,2.78-2.4,5-5.18,5.18.43.11.79.41.98.81,2.51-.53,4.48-2.5,5.01-5.01-.4-.19-.69-.54-.81-.98z" />
	<path d="M8.13,14.05c-2.02-.13-3.74-1.34-4.6-3.05h-1.03c.81,1.95,2.54,3.41,4.65,3.86.19-.4.54-.69.98-.81z" />
	<path d="M15,4v3.09c.16-.06.32-.09.5-.09h.5v-3h-1z" />
	<path d="M7.09,15h-3.09v1h3v-.5c0-.18.04-.34.09-.5z" />
</svg>
