<svg xmlns="http://www.w3.org/2000/svg" viewBox="0 0 16 16">
	<path d="m16,2c0-1.1-.9-2-2-2H5.5c-1.38,0-2.5,1.12-2.5,2.5v9.5H0v2c0,1.1.9,2,2,2h9c1.1,0,2-.9,2-2V5h3v-3ZM2,15c-.55,0-1-.45-1-1v-1h8v1c0,.35.09.7.27,1H2Zm9,0c-.55,0-1-.45-1-1v-2h-6V2.5c0-.83.67-1.5,1.5-1.5h6.82c-.22.47-.33.98-.32,1.5v11.5c0,.55-.45,1-1,1m4-11h-2v-1.5c0-1.5.75-1.5,1-1.5.55,0,1,.45,1,1v2Zm-4.5-1h-5c-.28,0-.5.22-.5.5s.22.5.5.5h5c.28,0,.5-.22.5-.5s-.22-.5-.5-.5m0,3h-5c-.28,0-.5.22-.5.5s.22.5.5.5h5c.28,0,.5-.22.5-.5s-.22-.5-.5-.5m0,3h-5c-.28,0-.5.22-.5.5s.22.5.5.5h5c.28,0,.5-.22.5-.5s-.22-.5-.5-.5z" />
</svg>
