<svg viewBox="0 0 16 16" xmlns="http://www.w3.org/2000/svg">
	<path d="M8.06,4.18l0.87-2.19C4.14,1.43,0.05,6.67,2.9,11.07C1.32,7.09,4.37,2.89,8.06,4.18z" />
	<path d="M7.94,11.82l-0.87,2.19c4.79,0.56,8.88-4.68,6.03-9.08C14.68,8.91,11.63,13.11,7.94,11.82z" />
	<path d="M10.04,2.72c-0.49,0.75-1.37,2.46-1.8,3.3C8.16,6.01,8.08,6,8,6C6.9,6,6,6.9,6,8c0,0.15,0.02,0.3,0.05,0.44c-1.28,1.16-4.62,4.26-5.02,5.51c-0.42,1.32,3.38,1.68,4.93-0.68c0.49-0.75,1.37-2.46,1.8-3.3C7.84,9.99,7.92,10,8,10c1.1,0,2-0.9,2-2c0-0.15-0.02-0.3-0.05-0.44c1.28-1.16,4.62-4.26,5.02-5.51C15.39,0.72,11.59,0.36,10.04,2.72z M8,9C7.45,9,7,8.55,7,8c0-0.55,0.45-1,1-1s1,0.45,1,1C9,8.55,8.55,9,8,9z" />
</svg>
