<svg viewBox="0 0 16 16" xmlns="http://www.w3.org/2000/svg">
	<path d="M13.391,5.529c-.414-.037-1.91-1.088-2.941-1.027S8.663,5.1,8,5.1s-1.418-.54-2.449-.6-2.527.99-2.941,1.027c-.721.065-.952-.246-1.61-.736a13.341,13.341,0,0,0,.459,3.454A4.249,4.249,0,0,0,4.5,11.389a3.063,3.063,0,0,0,2.2-.2A3.129,3.129,0,0,1,8,10.7a3.133,3.133,0,0,1,1.3.49,3.061,3.061,0,0,0,2.2.2,4.249,4.249,0,0,0,3.042-3.142A13.338,13.338,0,0,0,15,4.793c-.657.49-.888.8-1.609.736M6.94,9.232c-.486.438-2.157.257-2.7-.038-.652-.353-1.465-1.218-.881-1.7a2.646,2.646,0,0,1,2.876-.113c.869.719.928,1.651.707,1.85m4.823-.038c-.545.3-2.216.476-2.7.038-.221-.2-.162-1.131.707-1.85a2.645,2.645,0,0,1,2.875.113c.585.481-.229,1.346-.88,1.7" />
</svg>
