<svg viewBox="0 0 16 16" xmlns="http://www.w3.org/2000/svg">
	<polygon points="6.08,4.08 8,3.5 6.08,2.92 5.5,1 4.92,2.92 3,3.5 4.92,4.08 5.5,6" />
	<polygon points="9.9,12.9 11.5,12.5 9.9,12.1 9.5,10.5 9.1,12.1 7.5,12.5 9.1,12.9 9.5,14.5" />
	<polygon points="12.98,9.98 15,9.5 12.98,9.02 12.5,7 12.02,9.02 10,9.5 12.02,9.98 12.5,12" />
	<path d="M12.65,4.65l-1.29-1.29c-0.2-0.2-0.51-0.2-0.71,0l-9.29,9.29c-0.2,0.2-0.2,0.51,0,0.71l1.29,1.29c0.2,0.2,0.51,0.2,0.71,0l9.29-9.29C12.84,5.16,12.84,4.84,12.65,4.65z M11.82,5.18L9.18,7.82c-0.1,0.1-0.26,0.1-0.35,0L8.18,7.18c-0.1-0.1-0.1-0.26,0-0.35l2.65-2.65c0.1-0.1,0.26-0.1,0.35,0l0.65,0.65C11.92,4.92,11.92,5.08,11.82,5.18z" />
</svg>
