<svg xmlns="http://www.w3.org/2000/svg" viewBox="0 0 16 16">
	<polygon points="1.85 14.85 1 15 1.15 14.15 4.65 10.65 5.35 11.35 1.85 14.85" />
	<path d="M11.21,1.21l3.6,3.58c-.15-.03-.3-.05-.45-.05-.51,0-.97.19-1.31.53l-2.6,2.68-.44.45.21.59c.26.72,0,1.89-.57,2.84l-5.47-5.47c.69-.41,1.52-.68,2.2-.68.24,0,.46.03.63.1l.59.21.45-.44,2.68-2.62c.44-.43.62-1.06.48-1.72,0,0,0,0,0,0h0M11.21.21c-.26,0-.51.1-.71.29-.24.24-.33.57-.27.88.06.3.01.62-.21.83l-2.68,2.62c-.3-.11-.63-.16-.97-.16-1.3,0-2.82.69-3.71,1.58l7.07,7.07c1.13-1.13,1.93-3.27,1.42-4.68l2.6-2.68c.16-.16.37-.23.59-.23.08,0,.17,0,.25.03.07.01.13.02.2.02.25,0,.5-.09.69-.29.39-.39.39-1.02,0-1.41l-3.59-3.59c-.2-.2-.45-.29-.71-.29h0z" />
</svg>
