<svg xmlns="http://www.w3.org/2000/svg" viewBox="0 0 16 16">
	<path d="M15.9,9.6L14,2.7c-0.5-1.9-2.5-3.1-4.4-2.5L2.7,2C0.7,2.5-0.4,4.5,0.1,6.4L2,13.3c0.5,1.9,2.5,3.1,4.4,2.5l6.9-1.9C15.3,13.5,16.4,11.5,15.9,9.6z M2.3,5.9C2.1,5.1,2.5,4.3,3.3,4.1c0.8-0.2,1.6,0.3,1.8,1.1C5.4,5.9,4.9,6.8,4.1,7C3.3,7.2,2.5,6.7,2.3,5.9z M5.9,13.7c-0.8,0.2-1.6-0.3-1.8-1.1c-0.2-0.8,0.3-1.6,1.1-1.8c0.8-0.2,1.6,0.3,1.8,1.1C7.2,12.7,6.7,13.5,5.9,13.7z M8.4,9.4C7.6,9.7,6.8,9.2,6.6,8.4C6.3,7.6,6.8,6.8,7.6,6.6c0.8-0.2,1.6,0.3,1.8,1.1C9.7,8.4,9.2,9.2,8.4,9.4z M9,4.1c-0.2-0.8,0.3-1.6,1.1-1.8c0.8-0.2,1.6,0.3,1.8,1.1c0.2,0.8-0.3,1.6-1.1,1.8C10.1,5.4,9.2,4.9,9,4.1z M12.7,11.9c-0.8,0.2-1.6-0.3-1.8-1.1c-0.2-0.8,0.3-1.6,1.1-1.8c0.8-0.2,1.6,0.3,1.8,1.1C13.9,10.9,13.5,11.7,12.7,11.9z" />
</svg>
