<svg xmlns="http://www.w3.org/2000/svg" viewBox="0 0 16 16">
	<path d="M5.5,10c-1.38,0-2.5-1.12-2.5-2.5s1.12-2.5,2.5-2.5,2.5,1.12,2.5,2.5-1.12,2.5-2.5,2.5ZM5.5,6c-.83,0-1.5.67-1.5,1.5s.67,1.5,1.5,1.5,1.5-.67,1.5-1.5-.67-1.5-1.5-1.5z" />
	<path d="M5.5,13c-3.03,0-5.5-2.47-5.5-5.5S2.47,2,5.5,2s5.5,2.47,5.5,5.5-2.47,5.5-5.5,5.5ZM5.5,3C3.02,3,1,5.02,1,7.5s2.02,4.5,4.5,4.5,4.5-2.02,4.5-4.5S7.98,3,5.5,3z" />
	<path d="M16,7.5l-3,2.5v-5l3,2.5z" />
	<path d="M5.5,7h8.5v1H5.5c-.28,0-.5-.22-.5-.5h0c0-.28.22-.5.5-.5z" />
</svg>
