<svg xmlns="http://www.w3.org/2000/svg" viewBox="0 0 16 16">
	<polygon points="4,14 4,13 3,13 3,15 5,15 5,14" />
	<polygon points="13,13 13,14 12,14 12,15 14,15 14,13" />
	<polygon points="5,1 3,1 3,3 4,3 4,2 5,2" />
	<polygon points="12,1 12,2 13,2 13,3 14,3 14,1" />
	<rect x="3" y="5" width="1" height="2" />
	<rect x="13" y="5" width="1" height="2" />
	<rect x="13" y="9" width="1" height="2" />
	<rect x="3" y="9" width="1" height="2" />
	<rect x="7" y="14" width="3" height="1" />
	<rect x="7" y="1" width="3" height="1" />
	<polygon points="8.5,4 6,7 8,7 8,11 9,11 9,7 11,7" />
</svg>
