<svg xmlns="http://www.w3.org/2000/svg" viewBox="0 0 16 16">
	<path d="M9,10.38c-.32.11-.66.19-1,.19s-.68-.08-1-.19v2.62h-2l3,3,3-3h-2v-2.62z" />
	<path d="M8,3c-.55,0-1,.45-1,1v1h2v-1c0-.55-.45-1-1-1z" />
	<path d="M15.69,4.42c-.07-.06-.15-.11-.24-.16l-5.45-3.01h0l-1.11-.61c-.56-.27-1.22-.27-1.78,0L.55,4.26c-.09.05-.17.11-.24.16C.1,4.6,0,4.8,0,5c0,.2.1.4.31.58.07.06.15.11.24.16l5.45,3.01h0l1.11.61c.56.27,1.22.27,1.78,0l6.56-3.62c.09-.05.17-.11.24-.16.21-.17.31-.38.31-.58,0-.2-.1-.4-.31-.58ZM8.47,8.3c-.3.12-.63.12-.93,0L1.57,5,7.53,1.7c.3-.12.63-.12.93,0l5.97,3.3-5.97,3.3z" />
</svg>
