<svg xmlns="http://www.w3.org/2000/svg" viewBox="0 0 16 16">
	<path d="M15.45,4.83l-6.56-3.62c-.56-.27-1.22-.27-1.78,0L.55,4.83C.18,5.03,0,5.3,0,5.57c0,.27.18.54.55.74l6.56,3.62c.56.27,1.22.27,1.78,0l6.56-3.62c.37-.2.55-.47.55-.74,0-.27-.18-.54-.55-.74ZM8.47,8.87c-.3.12-.63.12-.93,0L1.57,5.57l5.97-3.3c.3-.12.63-.12.93,0l5.97,3.3-5.97,3.3z" />
	<path d="M15.45,9.69l-1.88-1.04-1.18.65,2.04,1.13-5.97,3.3c-.3.12-.63.12-.93,0l-5.97-3.3,2.04-1.13-1.18-.65-1.88,1.04c-.74.41-.74,1.07,0,1.48l6.56,3.63c.56.27,1.22.27,1.78,0l6.56-3.62c.74-.41.74-1.07,0-1.48z" />
</svg>
