<svg xmlns="http://www.w3.org/2000/svg" viewBox="0 0 16 16">
	<path d="M15.27,5.28l-.62,1.13c.22.66.35,1.36.35,2.09,0,3.58-2.92,6.5-6.5,6.5s-6.5-2.92-6.5-6.5,2.92-6.5,6.5-6.5c.73,0,1.43.13,2.09.35l1.13-.62c-.98-.47-2.07-.73-3.22-.73C4.36,1,1,4.36,1,8.5s3.36,7.5,7.5,7.5,7.5-3.36,7.5-7.5c0-1.15-.27-2.24-.73-3.22z" />
	<path d="M14.51,2.49l-7.78,4.24-2.12,5.66,5.66-2.12,4.24-7.78ZM7.44,7.44c.35-.35,2.47,1.77,2.12,2.12l-3.54,1.41,1.41-3.54z" />
	<circle cx="13.5" cy="8.5" r=".5" />
	<circle cx="3.5" cy="8.5" r=".5" />
	<circle cx="8.5" cy="13.5" r=".5" />
	<circle cx="8.5" cy="3.5" r=".5" />
</svg>
