<svg xmlns="http://www.w3.org/2000/svg" viewBox="0 0 16 16">
	<path d="M15,6.06V15H9.69c-0.22,0.36-0.49,0.69-0.79,1H16V4.46C15.71,4.96,15.37,5.49,15,6.06z" />
	<path d="M5.57,9.4c-1.22,0.07-2.27,1.09-2.94,3.05C1.94,14.47,0,15.36,0,15.36c2.08,0.71,4.3,0.95,6.26,0.08c1.75-0.78,2.38-2.35,2.22-3.76C8.35,10.58,7.27,9.3,5.57,9.4z" />
	<path d="M15.42,0.08c-0.69-0.55-3.27,1.97-6.11,5.14c-1,1.12-1.99,2.3-2.6,3.34C7.17,8.6,7.66,8.78,8.11,9.12C8.67,9.55,9,10.05,9.14,10.49c0.94-0.86,1.75-1.96,2.68-3.3C14.29,3.65,16.11,0.62,15.42,0.08z" />
	<path d="M0.74,11.81c0.08-0.24,0.17-0.43,0.26-0.65V1h9.52c0.38-0.38,0.72-0.71,1.05-1H0v12.93C0.29,12.65,0.58,12.28,0.74,11.81z" />
</svg>
