<svg xmlns="http://www.w3.org/2000/svg" viewBox="0 0 16 16">
	<path d="M15,1v1.85c0.37,0.32,0.7,0.66,1,1.02V0H0v3.19c0.24-0.28,0.49-0.55,0.78-0.81C0.85,2.32,0.93,2.27,1,2.21V1H15z" />
	<path d="M0,11.17v4.37l1-0.66v-2.15c-0.15-0.28-0.27-0.58-0.34-0.89C0.42,11.62,0.2,11.39,0,11.17z" />
	<path d="M15,12.74V15H8.54c-0.23,0.24-0.41,0.52-0.55,0.77L7.86,16H16v-4.11C15.7,12.2,15.37,12.49,15,12.74z" />
	<path d="M2.54,10.76c-0.01,0.49,0.12,0.96,0.41,1.33c0.35,0.45,1.02,0.93,2.29,0.93c0.03,0,0.07-0.01,0.1-0.01C5.19,13.78,4.62,14.86,2.91,16h2.38c0.4-0.41,0.71-0.81,0.94-1.19l0,0c0.87-1.57,2.19-2.48,3.72-2.54c3.31-0.14,5.61-1.86,5.61-4.2c0-2.98-3.07-5.42-7.47-5.94C5.86,1.87,3.63,2.52,2.11,3.88C1.03,4.84,0.44,6.02,0.44,7.22C0.44,8.57,1.2,9.83,2.54,10.76z M6.91,11.81c-0.03,0.02-0.06,0.04-0.09,0.06c-0.04-0.23-0.1-0.38-0.12-0.45c-0.33-0.86-1.11-1.01-1.62-1.11c-0.15-0.03-0.31-0.06-0.45-0.11c-0.11-0.05-0.22-0.1-0.33-0.15C4.51,9.75,4.85,9.49,5.3,9.43c0.85-0.1,1.48,0.1,1.77,0.56C7.34,10.45,7.27,11.14,6.91,11.81z M3.1,5c1.03-0.92,2.49-1.42,4.01-1.42c0.27,0,0.53,0.02,0.8,0.05c4.04,0.47,6.15,2.6,6.15,4.45c0,1.49-1.72,2.6-4.18,2.7c-0.4,0.02-0.78,0.09-1.16,0.19c0.05-0.63-0.08-1.24-0.39-1.75c-0.6-0.97-1.78-1.43-3.22-1.26c-0.84,0.1-1.6,0.6-2.08,1.32c-0.71-0.6-1.1-1.31-1.1-2.04C1.94,6.47,2.36,5.66,3.1,5z" />
</svg>
