<svg xmlns="http://www.w3.org/2000/svg" viewBox="0 0 16 16">
	<path d="m4.56,15.92c1.01.06,1.28.08,2.53.08,2.95,0,3.89.02,6.12-.08.23-1.32.23-2.68,0-4-.44-2.54.53-2.46,1.4-4.45,1.54-3.49,1.39-4.97,1.39-4.97.07-.76-.48-1.43-1.24-1.51-.75.08-1.3.75-1.24,1.51-.14,1.73-1.05,3.29-2.49,4.26-2.36,1.66-5.5.45-8.39,2.83C.67,11.21.51,15.02.49,15.51c.82.19,1.65.29,2.49.32.08-1.09.35-2.16.8-3.16,0,0,.75.61.77,3.25ZM7.65,0c1.74,0,3.15,1.41,3.15,3.15s-1.41,3.15-3.15,3.15-3.15-1.41-3.15-3.15S5.91,0,7.65,0z" />
</svg>
