<svg xmlns="http://www.w3.org/2000/svg" viewBox="0 0 16 16">
	<path d="m8,0C3.59,0,0,3.59,0,8s3.59,8,8,8,8-3.59,8-8S12.41,0,8,0Zm6.1,5h-2.39c-.26-1.33-.69-2.47-1.24-3.33,1.58.62,2.88,1.82,3.63,3.33Zm.7,3c0,.7-.11,1.37-.31,2h-2.62c.08-.64.12-1.31.12-2s-.04-1.36-.12-2h2.62c.2.63.31,1.3.31,2Zm-13.6,0c0-.7.11-1.37.31-2h2.62c-.08.64-.12,1.31-.12,2s.04,1.36.12,2H1.51c-.2-.63-.31-1.3-.31-2Zm3.9,0c0-.71.06-1.37.14-2h5.52c.08.63.14,1.29.14,2s-.06,1.37-.14,2h-5.52c-.08-.63-.14-1.29-.14-2ZM7.49,1.23c.17-.01.34-.03.51-.03s.34.01.51.03c.84.41,1.65,1.79,2.08,3.77h-5.17c.43-1.98,1.24-3.37,2.08-3.77Zm-1.96.44c-.55.86-.98,2-1.24,3.33H1.9c.75-1.51,2.05-2.71,3.63-3.33ZM1.9,11h2.39c.26,1.33.69,2.47,1.24,3.33-1.58-.62-2.88-1.82-3.63-3.33Zm6.61,3.78c-.17.01-.34.03-.51.03s-.34-.01-.51-.03c-.84-.4-1.65-1.79-2.08-3.78h5.17c-.43,1.98-1.24,3.37-2.08,3.78Zm1.96-.44c.55-.86.98-2,1.24-3.33h2.39c-.75,1.51-2.05,2.71-3.63,3.33z" />
</svg>
