<svg xmlns="http://www.w3.org/2000/svg" viewBox="0 0 16 16">
	<path d="M2.86,7.43c-.22-.88.15-2.05,1.51-2.32,1.64-.33,2.57,1.76-.04,3.35-1.12.68-2.33,1.56-2.92,2.67-.43.8-.41,1.87-.41,1.87h7v-1.71c-1.06.18-4.78.46-4.78.46.2-1.03,3.07-2.41,3.97-3.86,1.29-2.07.21-4.32-2.28-4.32-1.75,0-4.16.74-3.76,4.22l1.71-.35z" />
	<path d="M15,7h-2s-.34.73-1,1.84c-.66-1.1-1-1.84-1-1.84h-2s1.09,1.29,2.26,3.02c-.6.91-1.36,1.95-2.26,2.98h2c.3-.62.64-1.23,1-1.82.36.59.7,1.2,1,1.82h2c-.9-1.04-1.65-2.07-2.26-2.98,1.16-1.73,2.26-3.02,2.26-3.02z" />
</svg>
