<svg xmlns="http://www.w3.org/2000/svg" viewBox="0 0 12 12">
	<!-- TODO: Replace this with a proper icon design -->
	<g transform="scale(0.5)">
		<path d="M18.5,5.5c-1-1-2.5-1.5-3-1L5,15c0.39,0.24,1.23,0.1,1.59,0.38c0.36,0.28,0.3,1.06,0.63,1.4c0.33,0.33,1.11,0.28,1.4,0.63C8.9,17.77,8.76,18.61,9,19L19.5,8.5C20,8,19.5,6.5,18.5,5.5z M16.5,7.5l-7,7c-0.14,0.14-0.32,0.21-0.5,0.21s-0.36-0.07-0.5-0.21c-0.28-0.28-0.28-0.72,0-1l7-7c0.28-0.28,0.72-0.28,1,0C16.78,6.78,16.78,7.22,16.5,7.5z" />
		<path d="M7.35,18.47l-2.39,1.71c-0.1-0.27-0.22-0.51-0.42-0.71c-0.2-0.2-0.44-0.32-0.71-0.42l1.71-2.39C5.14,16.61,4.5,16.42,4,16l-3,7l7-3C7.58,19.5,7.39,18.86,7.35,18.47z" />
		<path d="M21.99,2.01C21,1,19.5,0.5,19,1l-2,2c2,0,4,2,4,4l2-2C23.5,4.5,22.98,3.02,21.99,2.01z" />
	</g>
</svg>
