<svg xmlns="http://www.w3.org/2000/svg" viewBox="0 0 12 12">
	<path d="M0,11V8.5H1V10H2.5v1z" />
	<path d="M0,2.5V0H2.5V1H1V2.5z" />
	<path d="M9.5,11V10H11V8.5h1V11z" />
	<path d="M11,2.5V1H9.5V0H12V2.5z" />
	<path d="M5.75,0.75C8.51,0.75 10.75,2.878 10.75,5.5C10.75,8.122 8.51,10.25 5.75,10.25C2.99,10.25 0.75,8.122 0.75,5.5C0.75,2.878 2.99,0.75 5.75,0.75zM2,6L3.333,6L3.5,6.5L3.333,7L2,7L2,8L4,8L4.5,6.5L5,8L6,8L6.571,6.286L7,8L9.5,8L10,6L10,5L8.5,5L8.5,6L9,6L8.75,7L7.75,7L7.5,6L7.833,4L9,4L9,3L6,3L6,5L5.5,6.5L5,5L5,3L2,3L1.5,4.5L2,6zM2.667,4L4,4L4,5L2.667,5L2.5,4.5L2.667,4z" />
</svg>
