<svg xmlns="http://www.w3.org/2000/svg" viewBox="0 0 12 12">
	<rect x="5" y="2" width="1" height="1" />
	<rect x="2" y="3" width="1" height="1" />
	<rect x="0" y="3" width="1" height="1" />
	<rect x="5" y="6" width="1" height="1" />
	<rect x="2" y="7" width="1" height="1" />
	<rect x="0" y="7" width="1" height="1" />
	<rect x="2" y="9" width="1" height="1" />
	<rect x="6" y="3" width="1" height="1" />
	<rect x="8" y="3" width="1" height="1" />
	<rect x="10" y="3" width="1" height="1" />
	<rect x="3" y="4" width="1" height="1" />
	<rect x="1" y="4" width="1" height="1" />
	<rect x="6" y="7" width="1" height="1" />
	<rect x="8" y="7" width="1" height="1" />
	<rect x="10" y="7" width="1" height="1" />
	<rect x="6" y="9" width="1" height="1" />
	<rect x="8" y="9" width="1" height="1" />
	<rect x="7" y="8" width="1" height="1" />
	<rect x="9" y="8" width="1" height="1" />
	<rect x="7" y="10" width="1" height="1" />
	<rect x="3" y="8" width="1" height="1" />
	<rect x="1" y="8" width="1" height="1" />
	<rect x="3" y="10" width="1" height="1" />
	<rect x="5" y="8" width="1" height="1" />
	<rect x="5" y="10" width="1" height="1" />
	<rect x="7" y="2" width="1" height="1" />
	<rect x="9" y="2" width="1" height="1" />
	<rect x="8" y="1" width="1" height="1" />
	<rect x="4" y="3" width="1" height="1" />
	<rect x="7" y="6" width="1" height="1" />
	<rect x="9" y="6" width="1" height="1" />
	<rect x="4" y="7" width="1" height="1" />
	<rect x="4" y="9" width="1" height="1" />
	<rect x="6" y="1" width="1" height="1" />
	<rect x="3" y="2" width="1" height="1" />
	<rect x="1" y="2" width="1" height="1" />
	<rect x="3" y="0" width="1" height="1" />
	<rect x="6" y="5" width="1" height="1" />
	<rect x="8" y="5" width="1" height="1" />
	<rect x="10" y="5" width="1" height="1" />
	<rect x="3" y="6" width="1" height="1" />
	<rect x="1" y="6" width="1" height="1" />
	<rect x="5" y="0" width="1" height="1" />
	<rect x="2" y="1" width="1" height="1" />
	<rect x="5" y="4" width="1" height="1" />
	<rect x="2" y="5" width="1" height="1" />
	<rect x="0" y="5" width="1" height="1" />
	<rect x="7" y="0" width="1" height="1" />
	<rect x="4" y="1" width="1" height="1" />
	<rect x="7" y="4" width="1" height="1" />
	<rect x="9" y="4" width="1" height="1" />
	<rect x="4" y="5" width="1" height="1" />
</svg>
