<svg viewBox="0 0 24 24">
	<rect x="11" y="5" width="2" height="2" />
	<rect x="17" y="8" width="2" height="2" />
	<rect x="17" y="11" width="2" height="2" />
	<rect x="17" y="14" width="2" height="2" />
	<rect x="11" y="17" width="2" height="2" />
	<rect x="14" y="17" width="2" height="2" />
	<rect x="8" y="17" width="2" height="2" />
	<rect x="5" y="14" width="2" height="2" />
	<rect x="5" y="11" width="2" height="2" />
	<rect x="5" y="8" width="2" height="2" />
	<rect x="8" y="5" width="2" height="2" />
	<rect x="14" y="14" width="2" height="2" />
	<rect x="8" y="14" width="2" height="2" />
	<rect x="11" y="14" width="2" height="2" />
	<rect x="14" y="11" width="2" height="2" />
	<rect x="8" y="11" width="2" height="2" />
	<rect x="11" y="11" width="2" height="2" />
	<rect x="14" y="8" width="2" height="2" />
	<rect x="8" y="8" width="2" height="2" />
	<rect x="11" y="8" width="2" height="2" />
	<rect x="14" y="5" width="2" height="2" />
</svg>
