<svg viewBox="0 0 24 24">
	<polygon points="3.97,10.5 6.86,15.5 9.74,10.5" />
	<path d="M12.22,16.57c-0.19,0-0.37-0.01-0.56-0.02c-0.93-0.08-1.81-0.36-2.62-0.84l0.72-1.22c0.62,0.37,1.31,0.58,2.02,0.65c1.29,0.11,2.56-0.28,3.55-1.12s1.61-2.01,1.72-3.3c0.23-2.67-1.75-5.04-4.42-5.27c-1.29-0.11-2.56,0.28-3.55,1.12c-1,0.84-1.61,2.01-1.72,3.3c-0.04,0.51-0.01,1.03,0.11,1.54L6.1,11.74c-0.15-0.66-0.2-1.33-0.15-1.99C6.1,8.08,6.89,6.56,8.17,5.49c1.29-1.08,2.92-1.59,4.58-1.44c3.45,0.3,6.01,3.35,5.71,6.8c-0.15,1.67-0.93,3.18-2.22,4.26C15.1,16.06,13.69,16.57,12.22,16.57z" />
	<path d="M19.81,18.41l-3.33-3.98l-1.49,1.25l3.33,3.98c0.34,0.41,0.96,0.46,1.37,0.12C20.1,19.43,20.15,18.82,19.81,18.41z" />
</svg>
