<svg width="582" height="508.999" viewBox="0 0 582 508.999" xmlns="http://www.w3.org/2000/svg">
	<path d="M582.5,433.615a17.985,17.985,0,0,1-1.5,8q-1.5,3-4.5,8-25.008,29.016-55,44.5-30,15.516-69,15.5-30,0-49-15.5t-29.5-39.5a292,292,0,0,1-16.5-49h-1q-39,49.008-84.5,76-45.516,27-110.5,27-80.016,0-120.5-48.5Q.5,411.623.5,335.615a366.087,366.087,0,0,1,20.5-121,343.774,343.774,0,0,1,59-106,294.033,294.033,0,0,1,92-75q53.484-27.984,119.5-28,60.984,0,91,36,30,36,40,92,10.992-33,21-66,9.984-33,20-67l96,27a746.057,746.057,0,0,1-39,99q-11.016,24-23,47.5-12,23.508-24,46.5-10.008,19.008-20,37a242.935,242.935,0,0,0-17,38q-3,7.01-3,18,0,9,4,32.5,3.984,23.508,10.5,50.5,6.492,27,16,46,9.492,19.008,19.5,19,15.984,0,29.5-11a329.717,329.717,0,0,0,25-22.5q11.484-11.484,22.5-11.5,6,0,14,5.5T582.5,433.615Zm-238-179q0-19.991-1-40.5a370.084,370.084,0,0,0-4-39.5q-2.016-12.984-4.5-35.5-2.508-22.5-7.5-46-5.016-23.484-16-39.5-11.016-15.984-29-16a55.475,55.475,0,0,0-23,4.5,119.544,119.544,0,0,0-21,12.5q-42,31.008-69.5,79.5a391.8,391.8,0,0,0-40.5,103,458.01,458.01,0,0,0-13,106.5q0,14.018,4,34a225.831,225.831,0,0,0,12,40q7.992,20.016,21,33a42.284,42.284,0,0,0,31,13q21,0,46-17.5,24.984-17.484,48.5-44a378.436,378.436,0,0,0,40-53.5q16.5-27,21.5-46a150.883,150.883,0,0,0,4-24Q344.484,266.615,344.5,254.615Z" transform="translate(-0.5 -0.616)" fill="#473a3a" />
</svg>
