<svg viewBox="0 0 105 105" xmlns="http://www.w3.org/2000/svg">
	<path fill="#473a3a" d="M104,51.2l-4.5-2.8c0-0.4-0.1-0.8-0.1-1.2l3.8-3.6c0.4-0.4,0.5-0.9,0.4-1.4c-0.1-0.5-0.5-0.9-0.9-1.1l-4.9-1.8c-0.1-0.4-0.2-0.8-0.3-1.2l3.1-4.3c0.3-0.4,0.4-1,0.2-1.4c-0.2-0.5-0.6-0.8-1.1-0.9l-5.2-0.8c-0.2-0.4-0.4-0.7-0.6-1l2.2-4.8c0.2-0.5,0.2-1-0.1-1.5s-0.8-0.7-1.3-0.7L89.4,23c-0.2-0.3-0.5-0.6-0.7-0.9l1.2-5.1c0.1-0.5,0-1-0.4-1.4c-0.4-0.4-0.9-0.5-1.4-0.4l-5.1,1.2c-0.3-0.2-0.6-0.5-0.9-0.7l0.2-5.3c0-0.5-0.2-1-0.7-1.3c-0.4-0.3-1-0.3-1.5-0.1l-4.8,2.2c-0.3-0.2-0.7-0.4-1.1-0.6l-0.8-5.2c-0.1-0.5-0.4-0.9-0.9-1.1C72,4,71.5,4.1,71,4.4l-4.2,3.1c-0.4-0.1-0.8-0.2-1.2-0.3l-1.8-4.9c-0.2-0.5-0.6-0.8-1.1-0.9c-0.5-0.1-1,0.1-1.4,0.4l-3.6,3.8c-0.4,0-0.8-0.1-1.2-0.1L53.8,1c-0.3-0.4-0.8-0.7-1.3-0.7s-1,0.3-1.3,0.7l-2.8,4.5c-0.4,0-0.8,0.1-1.2,0.1l-3.6-3.8c-0.4-0.4-0.9-0.5-1.4-0.4c-0.5,0.1-0.9,0.5-1.1,0.9l-1.8,4.9c-0.4,0.1-0.8,0.2-1.2,0.3L34,4.4c-0.4-0.3-1-0.4-1.4-0.2c-0.5,0.2-0.8,0.6-0.9,1.1l-0.8,5.2c-0.4,0.2-0.7,0.4-1.1,0.6l-4.8-2.2c-0.5-0.2-1-0.2-1.5,0.1c-0.4,0.3-0.7,0.8-0.7,1.3l0.2,5.3c-0.3,0.2-0.6,0.5-0.9,0.7L17,15.1c-0.5-0.1-1,0-1.4,0.4c-0.4,0.4-0.5,0.9-0.4,1.4l1.2,5.1c-0.3,0.3-0.5,0.6-0.7,0.9l-5.3-0.2c-0.5,0-1,0.2-1.3,0.7c-0.3,0.4-0.3,1-0.1,1.5l2.2,4.8c-0.2,0.3-0.4,0.7-0.6,1.1l-5.2,0.8c-0.5,0.1-0.9,0.4-1.1,0.9C4,33,4.1,33.5,4.4,34l3.1,4.3c-0.1,0.4-0.2,0.8-0.3,1.2l-4.9,1.8c-0.5,0.2-0.8,0.6-0.9,1.1c-0.1,0.5,0.1,1,0.4,1.4l3.8,3.6c0,0.4-0.1,0.8-0.1,1.2L1,51.2c-0.4,0.3-0.7,0.8-0.7,1.3s0.3,1,0.7,1.3l4.5,2.8c0,0.4,0.1,0.8,0.1,1.2l-3.8,3.6c-0.4,0.4-0.5,0.9-0.4,1.4c0.1,0.5,0.5,0.9,0.9,1.1l4.9,1.8c0.1,0.4,0.2,0.8,0.3,1.2L4.4,71c-0.3,0.4-0.4,1-0.2,1.4s0.6,0.8,1.1,0.9l5.2,0.8c0.2,0.4,0.4,0.7,0.6,1.1l-2.2,4.8c-0.2,0.5-0.2,1,0.1,1.5c0.3,0.4,0.8,0.7,1.3,0.7l5.3-0.2c0.2,0.3,0.5,0.6,0.7,0.9L15.2,88c-0.1,0.5,0,1,0.4,1.4c0.4,0.4,0.9,0.5,1.4,0.4l5.1-1.2c0.3,0.2,0.6,0.5,0.9,0.7l-0.2,5.3c0,0.5,0.2,1,0.7,1.3s1,0.3,1.5,0.1l4.8-2.2c0.3,0.2,0.7,0.4,1.1,0.6l0.8,5.2c0.1,0.5,0.4,0.9,0.9,1.1c0.5,0.2,1,0.1,1.4-0.2l4.3-3.1c0.4,0.1,0.8,0.2,1.2,0.3l1.8,4.9c0.2,0.5,0.6,0.8,1.1,0.9c0.5,0.1,1-0.1,1.4-0.4l3.6-3.8c0.4,0,0.8,0.1,1.2,0.1l2.8,4.5c0.3,0.4,0.8,0.7,1.3,0.7s1-0.3,1.3-0.7l2.8-4.5c0.4,0,0.8-0.1,1.2-0.1l3.6,3.8c0.4,0.4,0.9,0.5,1.4,0.4c0.5-0.1,0.9-0.5,1.1-0.9l1.8-4.9c0.4-0.1,0.8-0.2,1.2-0.3l4.2,3.1c0.4,0.3,1,0.4,1.5,0.2c0.5-0.2,0.8-0.6,0.9-1.1l0.8-5.2c0.4-0.2,0.7-0.4,1.1-0.6l4.8,2.2c0.5,0.2,1,0.2,1.5-0.1c0.4-0.3,0.7-0.8,0.7-1.3L82,89.4c0.3-0.2,0.6-0.5,0.9-0.7l5.1,1.2c0.5,0.1,1,0,1.4-0.4c0.4-0.4,0.5-0.9,0.4-1.4l-1.2-5.1c0.2-0.3,0.5-0.6,0.7-0.9l5.3,0.2c0.5,0,1-0.2,1.3-0.7c0.3-0.4,0.3-1,0.1-1.5l-2.2-4.8c0.2-0.3,0.4-0.7,0.6-1.1l5.2-0.8c0.5-0.1,0.9-0.4,1.1-0.9s0.1-1-0.2-1.5l-3.1-4.3c0.1-0.4,0.2-0.8,0.3-1.2l4.9-1.8c0.5-0.2,0.8-0.6,0.9-1.1c0.1-0.5-0.1-1-0.4-1.4l-3.8-3.6c0-0.4,0.1-0.8,0.1-1.2l4.5-2.8c0.4-0.3,0.7-0.8,0.7-1.3S104.5,51.5,104,51.2z M73.2,77.6c-1.5-0.3-3,0.7-3.4,2.2L68.3,87c-10.2,4.6-21.8,4.5-31.9-0.2l-1.6-7.3c-0.3-1.5-1.8-2.5-3.4-2.2L25,78.8c-1.2-1.2-2.3-2.5-3.3-3.9H53c0.3,0,0.6-0.1,0.6-0.4V63.4c0-0.3-0.2-0.4-0.6-0.4h-9.2l0-7h9.9c0.9,0,4.8,0.3,6.1,5.3c0.4,1.5,1.3,6.6,1.8,8.2c0.6,1.8,3,5.4,5.5,5.4h16.1c-1.1,1.4-2.3,2.8-3.5,4.1L73.2,77.6z M78.5,84.6c0,1.7-1.4,3.1-3.1,3.1c-1.7,0-3.1-1.4-3.1-3.1c0-1.7,1.4-3.1,3.1-3.1c0,0,0.1,0,0.1,0C77.1,81.5,78.5,82.9,78.5,84.6z M32.4,84.5c0,1.7-1.4,3.1-3.1,3.1c-1.7,0-3.1-1.4-3.1-3.1c0-1.7,1.4-3.1,3.1-3.1c0,0,0.1,0,0.1,0C31.1,81.4,32.4,82.8,32.4,84.5z M14.5,48l6.7-3c1.4-0.6,2.1-2.3,1.4-3.7l-1.4-3.1h5.4v24.4H15.7C14.3,57.9,13.9,52.9,14.5,48z M12.2,40.7c0-1.7,1.4-3.1,3.1-3.1c0,0,0.1,0,0.1,0c1.7,0,3,1.4,3,3.1c0,1.7-1.4,3.1-3.1,3.1C13.5,43.8,12.2,42.4,12.2,40.7z M43.8,45.7l0-7.2h12.9c0.7,0,4.7,0.8,4.7,3.8c0,2.5-3.1,3.4-5.6,3.4H43.8z M81.7,62.8c-2,0.2-4.2-0.8-4.5-2.1c-1.2-6.6-3.1-8-6.2-10.5c3.8-2.4,7.8-6,7.8-10.9c0-5.2-3.6-8.5-6-10.1c-3.4-2.2-7.2-2.7-8.2-2.7H24c5.6-6.3,13.1-10.5,21.4-12.1l4.8,5c1.1,1.1,2.9,1.2,4,0.1l5.4-5.1c11.1,2.1,20.6,8.9,26.2,18.7l-3.7,8.3c-0.6,1.4,0,3.1,1.4,3.8l7.1,3.1c0.2,2.2,0.2,4.4,0.1,6.6h-3.9c-0.4,0-0.6,0.3-0.6,0.6v1.8C86.2,61.7,83.8,62.6,81.7,62.8z M49.2,12.5c0-1.7,1.4-3.1,3.1-3.1c0,0,0.1,0,0.1,0c1.7,0,3,1.4,3,3.1c0,1.7-1.4,3.1-3.1,3.1S49.2,14.3,49.2,12.5z M89.4,43.9c-1.7,0-3.1-1.4-3.1-3.1c0-1.7,1.4-3.1,3.1-3.1c0,0,0.1,0,0.1,0c1.7,0,3,1.4,3,3.1C92.5,42.5,91.1,43.9,89.4,43.9z" />
</svg>
