<svg width="240" height="240" viewBox="0 0 240 240" xmlns="http://www.w3.org/2000/svg" xmlns:xlink="http://www.w3.org/1999/xlink" version="1.1">
	<path fill="#f1decd" d="M166.1,17.8c-1.8-2.8-4.9-4.5-8.2-4.7H70.8c-3.3,0.2-6.3,1.9-8.2,4.7L19.1,93.2c-1.5,3-1.5,6.5,0,9.4l43.6,75.4c1.8,2.8,4.9,4.5,8.2,4.7h87.1c3.3-0.2,6.3-1.9,8.2-4.7l43.6-75.4c1.5-3,1.5-6.5,0-9.4L166.1,17.8z" />
	<path fill="#3ea8ff" d="M153.7,121.4L210.8,89l-32.1-55.6L165,9.7H88.9L153.7,121.4z" />
	<path fill="#2180ce" d="M133.1,59.7l-28.8-50H65.2l-12,16.7L87.5,86l30.8,53.4l45.9-25.7L133.1,59.7z" />
	<path fill="#deba92" d="M213,92.9l-53.7,26.2L225.6,220L213,92.9z" />
	<path fill="#d49b64" d="M165.6,116L120,142.4l93.6,56.8L165.6,116z" />
	<path fill="#473a3a" d="M77.4,159.7l-35-60.6c-1.5-2.3-0.8-5.4,1.5-6.9c2.3-1.5,5.4-0.8,6.9,1.5c0.1,0.1,0.2,0.3,0.2,0.4l35,60.6c1.5,2.3,0.8,5.4-1.5,6.9c-2.3,1.5-5.4,0.8-6.9-1.5C77.5,160,77.4,159.8,77.4,159.7 M235.6,219c0.3,3-0.8,6-3.1,8.1c-4.2,5.1-22.4,8.9-36.1,10.8c-9.1,1.3-18.3,2-27.5,2.1c-8.6-0.1-20.6-2.3-32-3c-16.1-1-69.4-3-87.8-2.9c-20.6,0.1-24.7-1.1-28.2-4.1c-1.4-1.1,10.3-7,35-9c60.2-4.9,113.3-5.5,131.4-4.6c7.3,0.4,14.5,1.7,21.5,3.8l-38.6-27.7c-3.2,2.1-7,3.3-10.8,3.3h-90c-7.1,0-13.7-3.8-17.3-10l-45-77.9c-3.6-6.2-3.6-13.8,0-20l45-77.9C55.6,3.8,62.2,0,69.4,0h90c7.1,0,13.8,3.8,17.3,10l33.2,57.5l11.8,20.4l0,0l0,0l0,0l0.1,0.2c0,0.1,0.1,0.2,0.1,0.2c1.4,2.5,2.2,5.2,2.4,8.1c0,0.5,10.3,112.5,11.2,121.9L235.6,219z M65.2,27.3l56.1,97.2c7-1.7,14.2-2.6,21.4-2.5l14.8-20.1l24.8-2.8c3.6-6.3,7.9-12.1,12.9-17.3l-33.3-57.6c-1.7-2.5-4.5-4.1-7.5-4.3h-80c-3,0.2-5.8,1.8-7.5,4.3L65.2,27.3z M147,175.9L116,153.7c-1.1-0.8-2.1-1.9-2.8-3.1l0,0L53.6,47.3L26.9,93.6c-1.4,2.7-1.4,5.9,0,8.7l40,69.3c1.7,2.6,4.5,4.2,7.5,4.3L147,175.9zM210.8,171.6l-7-70.9c-4.4,4.8-8.3,10.1-11.5,15.8l-24.8,2.8l-14.8,20.1c-6.5,0-13.1,0.7-19.4,2.1l57.9,41.5C194.5,175.3,202.5,170.7,210.8,171.6" />
</svg>
