<svg width="1097" height="320" viewBox="0 0 1097 320" xmlns="http://www.w3.org/2000/svg" xmlns:xlink="http://www.w3.org/1999/xlink" version="1.1">
	<rect fill="#f1decd" width="1097" height="320" />
	<path fill="#473a3a" d="M1014.3,179.3c-3.1,2.9-6.8,5.1-10.9,6.3c-3.5,1.1-7.1,1.6-10.7,1.7c-6.1,0.1-12-2.1-16.6-6c-4.8-4-7.5-10.6-8.1-19.9l48-6c0-8.7-2.6-15.7-7.7-21.1c-5.2-5.4-12.7-8.1-22.7-8.1c-7.2,0-14.3,1.6-20.8,4.7c-6.4,3.1-11.8,7.9-15.5,13.8c-3.9,6.1-5.9,13.5-5.9,22.1c0,8,1.8,15,5.3,20.8c3.4,5.8,8.4,10.4,14.3,13.5c6.2,3.2,13.1,4.8,20.1,4.7c9,0,16.1-2.2,21.4-6.6c5.5-4.7,9.8-10.7,12.5-17.5L1014.3,179.3zM971.6,139c2.3-3.9,5.3-5.8,9-5.8c3.8,0,6.5,1.8,8.1,5.5c1.7,4.2,2.6,8.7,2.7,13.2l-23.6,2.9C968.1,148.1,969.4,142.9,971.6,139" />
	<path fill="#473a3a" d="M924.6,191.3c-7.1,0-10.6-4.3-10.6-13v-34.5c0-4.3,2.2-6.5,6.5-6.5h14.7v-8.6H914c0-4.1,0-8.2,0.2-12.2c0.1-4,0.6-11.6,0.9-15.8l-25.5,11.8v16.2h-9.8v8.6h9.8v44.3c0,7.2,2,13,6,17.6s9.9,6.8,17.6,6.8c4.1,0.1,8.1-0.7,11.8-2.4c3-1.5,5.7-3.6,7.9-6.2c2-2.4,3.6-5,4.9-7.8l-2.6-2.6C932.4,189.8,928.6,191.4,924.6,191.3" />
	<path fill="#473a3a" d="M863.2,194.7c-0.6-3-0.9-6-0.8-9v-38.9c0-5.2,0.1-9.5,0.2-12.9c0.2-3.4,0.3-5.9,0.4-7.6l-1-1l-35.5,16.4l1.6,3.7c1.1-0.4,2.2-0.7,3.3-1c0.9-0.2,1.9-0.3,2.8-0.3c1-0.1,1.9,0.2,2.7,0.8c0.6,0.5,0.9,1.6,0.9,3.3v37.4c0.1,3-0.1,6.1-0.7,9c-0.4,2-1.2,3.3-2.3,4c-1.3,0.7-2.9,1.1-4.4,1.1v3.7h41.5v-3.7c-2.1,0-4.1-0.4-6-1.1C864.6,197.9,863.6,196.4,863.2,194.7M851,117.3c3.7,0.1,7.3-1.4,9.9-4.2c2.6-2.6,4.1-6.2,4.1-9.8c0-3.7-1.4-7.3-4.1-9.9c-2.6-2.8-6.2-4.3-9.9-4.2c-3.8-0.1-7.5,1.5-10.1,4.2c-2.6,2.6-4.1,6.2-4.1,9.9C836.9,111,843.2,117.3,851,117.3C851,117.3,851,117.3,851,117.3" />
	<path fill="#473a3a" d="M812.2,194.7c-0.6-3-0.9-6-0.8-9v-39.2c0-7.1-1.6-12.2-4.7-15.4c-3.2-3.2-8.1-4.8-14.8-4.8c-4.1,0-8.1,0.8-11.8,2.4c-3.1,1.2-6,2.8-8.8,4.6c-3.1,2-6,4.2-8.7,6.7v-38.4c0-5.2,0.1-9.5,0.2-12.9s0.3-5.9,0.4-7.6l-1.1-1l-35.5,16.4l1.7,3.8c1.1-0.4,2.2-0.7,3.3-1c0.9-0.2,1.9-0.3,2.8-0.3c1-0.1,1.9,0.2,2.7,0.8c0.6,0.5,0.9,1.6,0.9,3.3v82.6c0.1,3-0.1,6.1-0.7,9c-0.4,2-1.2,3.3-2.3,4c-1.3,0.7-2.9,1.1-4.4,1.1v3.7h41.5v-3.7c-2.1,0-4.1-0.4-6-1.1c-1.5-0.8-2.6-2.3-2.9-4c-0.6-3-0.9-6-0.8-9v-37.9c2.7-1.9,5.7-3.3,8.9-4.2c2.3-0.6,4.6-0.9,6.9-1c3.8,0,6.2,1,7.2,3c1.1,2.4,1.6,5.1,1.5,7.7v32.4c0.1,3-0.1,6.1-0.7,9c-0.4,2-1.2,3.3-2.3,4c-1.3,0.7-2.9,1.1-4.4,1.1v3.7h41.5v-3.7c-2.1,0-4.1-0.4-6-1.1C813.5,197.8,812.4,196.4,812.2,194.7" />
	<path fill="#473a3a" d="M705,130.7c-4.3-2.9-9.4-4.5-14.6-4.5c-5.7-0.2-11.4,1.4-16.2,4.6c-4.3,2.8-7.7,6.7-9.8,11.2H664c0-3.3,0.1-6.4,0.4-9.5c0.1-2.1,0.4-4.1,0.7-6.2l-1-1L630.3,141l1.6,3.7c1.5-0.4,3-0.6,4.6-0.6c1-0.1,1.9,0.2,2.7,0.8c0.6,0.5,0.9,1.6,0.9,3.2v73.9c0.1,3-0.1,6.1-0.7,9c-0.4,2-1.2,3.3-2.3,4c-1.3,0.7-2.9,1.1-4.4,1.1v3.7h43.1v-3.7c-2.5,0-4.9-0.4-7.2-1.1c-1.7-0.7-3-2.2-3.3-4c-0.6-3-0.9-6-0.8-9v-16.8c1.5,0.2,3.2,0.4,5,0.5s3.8,0.2,5.9,0.2c5.2,0,10.3-0.8,15.3-2.3c5.2-1.5,10.1-4,14.4-7.3c4.5-3.5,8.2-8,10.7-13.1c2.7-5.4,4.1-12,4.1-19.8c0-7.8-1.4-14.5-4.1-20C713.4,138.3,709.7,133.9,705,130.7M688.9,190.6c-3.3,5-7.3,7.6-12,7.6c-5.2,0-9.3-2.4-12.4-7.2v-43.3c1.7-1.8,3.8-3.1,6-4c2-0.8,4.2-1.2,6.3-1.2c4.8,0,8.8,2.3,12,6.9c3.3,4.6,4.9,11.6,4.9,21.1C693.8,178.9,692.2,185.6,688.9,190.6" />
	<path fill="#473a3a" d="M621.3,190.6c-1.2,0.4-2.4,0.7-3.7,0.7c-2,0-3.2-0.7-3.9-2c-0.7-1.8-1.1-3.8-1-5.8v-35.5c0-12.2-7.2-19.5-20-21.8c-9-1.6-19.4-1-28.3,0.6c-5.1,0.9-10.4,2.8-13.6,5.5v23.9h3.7c0.9-5.5,3.4-10.6,7.1-14.7c3.2-3.8,8-6,12.9-5.9c3.8,0,6.8,1.1,8.9,3.3c2.1,2.2,3.2,5.9,3.2,11v8.6c-13.8,3.7-24,7.8-30.5,12.2s-9.8,10.2-9.8,17.4c-0.1,4.5,1.5,8.9,4.3,12.4c2.9,3.6,7.3,5.4,13.3,5.4c4.5,0,8.9-1.2,12.9-3.3c4.2-2.3,7.6-5.7,9.9-9.9h0.3c0.9,3.7,3.1,6.9,6.1,9.2c2.9,2.1,7,3.2,12.3,3.2c4.7,0.1,9.3-1.2,13.3-3.7c4.2-2.7,7.4-6.6,9.4-11.1l-2.6-2.6C624.4,189,622.9,190,621.3,190.6M586.7,186.3c-1.3,1.4-2.7,2.5-4.3,3.5c-1.7,1.1-3.8,1.6-5.8,1.5c-2.1,0.1-4.2-0.8-5.5-2.4c-1.3-1.6-2-3.7-1.9-5.8c0.1-1.9,0.5-3.9,1.2-5.7c1.1-2.7,2.8-5,5-6.8c2.5-2.3,6.3-4.1,11.3-5.5L586.7,186.3z" />
	<path fill="#473a3a" d="M520.7,131.6c-4.8,1.9-9.1,4.8-11.9,9.9h-0.3c0-3,0.1-6,0.4-8.9c0.1-2.1,0.4-4.2,0.7-6.3l-1-1L474.8,141l1.6,3.7c1.5-0.4,3-0.6,4.6-0.6c1-0.1,1.9,0.2,2.7,0.8c0.6,0.5,0.9,1.6,0.9,3.2v37.4c0.1,3-0.1,6.1-0.6,9c-0.4,2-1.2,3.3-2.3,4c-1.4,0.7-2.9,1.1-4.4,1.1v3.7h43.1v-3.7c-2.5,0-4.9-0.4-7.2-1.1c-1.7-0.7-3-2.2-3.3-4c-0.6-3-0.9-6-0.8-9v-36.3c2.1-1.8,4.5-3.2,7.2-4c2.5-0.7,5.1-1.1,7.6-1.1c2.4,0,4.8,0.7,6.8,1.9c2.2,1.3,3.7,5.1,4.5,10h4.1v-23.9C535.3,129,526.6,129.2,520.7,131.6" />
	<path fill="#473a3a" d="M424.1,155.5c2.7,0.1,5.3,0.6,7.8,1.6c1.7,0.8,2.9,2.6,3.5,5.4c0.7,4.4,1,8.8,0.9,13.3c0,3.8,0,6.3-0.2,9.2c-0.2,2.9-0.4,4.5-1.6,6.5c-1.6,2.7-4.4,4-7.4,4.6c-2.7,0.6-5.5,0.9-8.2,0.9c-6.3,0-12.7-2-16.8-5.1c-5.3-4.1-9.4-11.4-12-19.9c-2.4-8.3-3.6-16.8-3.5-25.4c0-14.5,4-24.2,9.4-31.4c5.5-7.4,14.6-11.2,25-11.9c4.1-0.2,8.3,0.2,12.3,1.2c3.6,1.1,7.4,2.7,10.4,6.1s4.7,7.1,6.9,13.4h3.7V98.9c-4.9-1.8-9.9-3.2-15-4.2c-5.7-1.2-11.6-1.8-17.4-1.8c-8.1-0.1-16.2,1.2-23.9,3.8c-7.2,2.4-13.9,6.2-19.7,11.2c-5.8,5-10.4,11.3-13.4,18.3c-3.4,7.9-5,16.5-4.9,25.1c0,11,2.4,20.6,7.2,28.8c4.6,8.1,11.4,14.7,19.5,19.1c8.5,4.6,18,6.9,27.7,6.8c7.5,0.1,15-1,22.2-3.2c5.7-1.7,11.2-4.1,16.4-7.2c3.3-1.9,6.3-4.1,9.1-6.6c-0.6-2.7-1-5.4-1.1-8.1c-0.1-2.6-0.2-5.4-0.2-8.3v-9.4c0-2.8,0.3-4.8,0.9-5.9c0.7-1.1,1.9-1.8,3.2-1.8v-3.7h-40.7L424.1,155.5L424.1,155.5z" />
	<path fill="#f1decd" d="M285.3,133.2l-43.6-75.4c-1.8-2.8-4.9-4.5-8.2-4.7h-87.1c-3.3,0.2-6.4,1.9-8.2,4.7l-43.6,75.4c-1.5,3-1.5,6.5,0,9.4l43.6,75.4c1.8,2.8,4.9,4.5,8.2,4.7h87.1c3.3-0.2,6.4-1.9,8.2-4.7l43.6-75.4C286.8,139.7,286.8,136.2,285.3,133.2z" />
	<polygon fill="#3ea8ff" points="254.3,73.4 240.6,49.7 164.5,49.7 229.3,161.4 286.4,129" />
	<polygon fill="#2180ce" points="208.7,99.7 179.9,49.7 140.8,49.7 128.7,66.5 163.1,126 194,179.4 239.9,153.7" />
	<polygon fill="#deba92" points="288.6,132.9 234.9,159.1 301.2,260" />
	<polygon fill="#d49b64" points="241.2,156.1 195.6,182.4 289.2,239.2" />
	<path fill="#473a3a" d="M311.2,259l-0.1-0.7c-0.9-9.4-11.1-121.4-11.2-121.9c-0.2-2.8-1.1-5.6-2.5-8.1c0-0.1-0.1-0.2-0.1-0.2l-0.1-0.2l0,0l0,0l0,0l-11.8-20.4L252.3,50c-3.6-6.2-10.2-10-17.3-10h-90c-7.1,0-13.7,3.8-17.3,10l-45,77.9c-3.6,6.2-3.6,13.8,0,20l45,77.9c3.6,6.2,10.2,10,17.3,10h90c3.9,0,7.6-1.2,10.9-3.3l38.6,27.7c-7-2.2-14.2-3.5-21.5-3.8c-18.1-0.9-71.2-0.3-131.4,4.6c-24.7,2-36.4,7.9-35,9c3.5,3,7.6,4.2,28.2,4.1c18.3-0.1,71.7,1.9,87.8,2.9c11.4,0.7,23.4,2.9,32,3c9.2-0.1,18.4-0.8,27.5-2.1c13.7-1.9,32-5.7,36.2-10.8C310.3,265,311.5,262,311.2,259zM142.5,64.3c1.7-2.5,4.4-4.2,7.5-4.3h80c3,0.2,5.8,1.8,7.5,4.3l33.3,57.6c-5,5.2-9.3,11-12.9,17.3l-24.8,2.8L218.3,162c-7.2,0-14.4,0.8-21.4,2.5l-56.1-97.2L142.5,64.3zM150,215.9c-3-0.2-5.8-1.8-7.5-4.3l-40-69.3c-1.4-2.7-1.4-5.9,0-8.7l26.7-46.3l59.6,103.2l0,0c0.7,1.2,1.6,2.3,2.8,3.1l30.9,22.2L150,215.9zM266.8,222.9l-57.9-41.5c6.4-1.4,12.9-2.1,19.4-2.1l14.8-20.1l24.8-2.8c3.3-5.7,7.1-10.9,11.5-15.8l7,70.9C278.1,210.7,270.1,215.3,266.8,222.9zM161.6,194.7c1.5,2.3,0.8,5.4-1.5,6.9c-2.3,1.5-5.4,0.8-6.9-1.5c-0.1-0.1-0.2-0.2-0.2-0.4l-35-60.6c-1.5-2.3-0.8-5.4,1.5-6.9c2.3-1.5,5.4-0.8,6.9,1.5c0.1,0.1,0.2,0.2,0.2,0.4L161.6,194.7z" />
</svg>
