<svg viewBox="0 0 48 48" xmlns="http://www.w3.org/2000/svg">
	<path fill="#803847" d="M40.34,9.04C40.33,9.02,40.31,9,40.28,8.99C37.22,7.58,33.99,6.58,30.67,6c-0.06-0.01-0.12,0.02-0.16,0.07c-0.44,0.8-0.84,1.62-1.2,2.46c-3.58-0.54-7.22-0.54-10.8,0c-0.36-0.84-0.76-1.66-1.21-2.46C17.27,6.02,17.21,5.99,17.15,6c-3.32,0.57-6.55,1.58-9.61,2.99C7.51,9,7.49,9.02,7.47,9.04C2,16.88-0.47,26.42,0.5,35.92c0,0.04,0.03,0.08,0.06,0.11c3.56,2.64,7.55,4.66,11.79,5.96c0.06,0.02,0.13,0,0.17-0.05c0.91-1.24,1.72-2.55,2.41-3.92c0.04-0.07,0.01-0.16-0.07-0.2c0,0-0.01,0-0.02-0.01c-1.27-0.49-2.5-1.07-3.68-1.76c-0.07-0.04-0.1-0.14-0.05-0.21c0.01-0.02,0.02-0.03,0.04-0.04c0.25-0.19,0.5-0.38,0.73-0.57c0.04-0.04,0.1-0.04,0.15-0.02c7.52,3.53,16.22,3.53,23.74,0c0.05-0.02,0.11-0.02,0.16,0.02c0.24,0.2,0.48,0.39,0.73,0.58c0.07,0.05,0.08,0.14,0.03,0.21c-0.01,0.02-0.03,0.03-0.04,0.04c-1.18,0.69-2.41,1.27-3.69,1.75c-0.08,0.03-0.12,0.12-0.09,0.2c0,0.01,0,0.01,0.01,0.01c0.71,1.36,1.51,2.68,2.41,3.92c0.04,0.05,0.1,0.07,0.17,0.06c4.25-1.3,8.24-3.32,11.81-5.96c0.04-0.03,0.06-0.07,0.06-0.11C48.32,26.41,45.84,16.86,40.34,9.04z M20.33,25.8c0.14,2.48-1.76,4.61-4.24,4.76v0c-2.48-0.16-4.37-2.28-4.24-4.76c-0.14-2.49,1.76-4.62,4.24-4.76c2.48,0.13,4.38,2.24,4.25,4.72C20.33,25.77,20.33,25.79,20.33,25.8z M36.02,25.8c0.15,2.48-1.75,4.61-4.23,4.76c-0.01,0-0.01,0-0.02,0v0c-2.48-0.16-4.37-2.28-4.24-4.76c-0.14-2.49,1.76-4.62,4.24-4.76c2.48,0.13,4.38,2.24,4.25,4.72C36.02,25.77,36.02,25.79,36.02,25.8z" />
</svg>
