<svg viewBox="0 0 48 48" xmlns="http://www.w3.org/2000/svg">
<path fill="#803847" d="M44.83,16.98C41.82,8.04,33.44,2.01,24,2C11.85,2,2,11.84,1.99,23.99c0,9.47,6.06,17.89,15.05,20.88c1.1,0.19,1.51-0.47,1.51-1.04c0-0.52-0.03-2.26-0.03-4.1c-5.53,1.02-6.96-1.35-7.4-2.58c-0.49-1.2-1.26-2.27-2.26-3.11c-0.77-0.41-1.87-1.43-0.03-1.46c1.73-0.03,2.97,1.6,3.38,2.26c1.98,3.33,5.14,2.39,6.41,1.82c0.09-1.12,0.59-2.16,1.4-2.94c-4.89-0.55-10.01-2.45-10.01-10.86c-0.03-2.19,0.78-4.3,2.26-5.91c-0.67-1.9-0.6-3.99,0.22-5.83c0,0,1.84-0.58,6.05,2.26c3.6-0.99,7.4-0.99,11,0c4.21-2.85,6.05-2.26,6.05-2.26c0.81,1.84,0.89,3.93,0.22,5.83c1.48,1.61,2.29,3.72,2.26,5.91c0,8.44-5.14,10.31-10.04,10.86c1.06,1.08,1.6,2.56,1.48,4.07c0,2.94-0.03,5.31-0.03,6.05c0,0.58,0.41,1.27,1.51,1.04C42.53,40.99,48.71,28.5,44.83,16.98z" />
</svg>
