<svg viewBox="0 0 48 48" xmlns="http://www.w3.org/2000/svg">
	<path fill="#803847" d="M29.51,31.49c0.19,0.26,0.17,0.62-0.05,0.85c-0.83,0.75-1.87,1.25-2.98,1.42c-0.81,0.16-1.63,0.25-2.46,0.25c-0.83,0-1.65-0.09-2.46-0.26c-1.1-0.18-2.13-0.67-2.96-1.42c-0.23-0.24-0.23-0.61,0-0.85c0.24-0.23,0.61-0.23,0.85,0c0.6,0.52,1.32,0.88,2.1,1.04c0.82,0.2,1.66,0.3,2.51,0.3c1.49,0,3.59-0.35,4.61-1.34C28.9,31.25,29.27,31.25,29.51,31.49zM21.25,26.29c0-1.26-1.03-2.29-2.29-2.29c-1.26,0-2.29,1.03-2.29,2.29c0,1.26,1.03,2.29,2.29,2.29C20.22,28.58,21.25,27.55,21.25,26.29z M29.04,24c-1.26,0-2.29,1.03-2.29,2.29c0,1.26,1.03,2.29,2.29,2.29c1.26,0,2.29-1.03,2.29-2.29C31.33,25.03,30.31,24,29.04,24z M29.04,28.58C29.04,28.58,29.04,28.58,29.04,28.58C29.04,28.58,29.04,28.58,29.04,28.58L29.04,28.58z M42.24,36.3c-2.39,3.54-5.75,6.31-9.68,7.97C29.85,45.42,26.94,46.01,24,46c-4.38,0.01-8.67-1.3-12.3-3.76c-3.54-2.39-6.31-5.75-7.97-9.68c-2.9-6.85-2.14-14.7,2.03-20.86c2.39-3.54,5.75-6.31,9.68-7.97c6.85-2.9,14.7-2.14,20.86,2.03c3.54,2.39,6.31,5.75,7.97,9.68C47.17,22.29,46.41,30.14,42.24,36.3z M38.67,24c0-1.78-1.44-3.21-3.22-3.22c-0.83-0.01-1.63,0.32-2.21,0.9c-2.53-1.72-5.51-2.66-8.57-2.73l1.47-6.87l4.76,1c0.05,1.26,1.12,2.25,2.39,2.19c1.26-0.05,2.25-1.12,2.19-2.38c-0.05-1.23-1.06-2.2-2.29-2.2c-0.87-0.01-1.67,0.5-2.03,1.29l-5.33-1.14c-0.04-0.01-0.08-0.01-0.12-0.01c-0.27-0.01-0.52,0.18-0.58,0.45l-1.62,7.67c-3.11,0.02-6.14,0.97-8.7,2.73c-0.6-0.57-1.39-0.89-2.21-0.9c-1.78,0-3.22,1.43-3.22,3.21c0,1.27,0.75,2.42,1.91,2.94c-0.05,0.32-0.08,0.65-0.08,0.98c0,2.39,1.33,4.63,3.76,6.32c2.7,1.76,5.86,2.67,9.08,2.61c3.22,0.06,6.39-0.85,9.08-2.61c2.42-1.68,3.76-3.93,3.76-6.32c0-0.32-0.02-0.64-0.08-0.95C37.94,26.41,38.66,25.26,38.67,24z" />
</svg>
