<svg width="280" height="174.379" viewBox="0 0 280 174.379" xmlns="http://www.w3.org/2000/svg">
	<path d="M97.072,3.951c28.8,0,54.63,3.968,71.968,10.208V51.748C151.7,58,125.869,61.956,97.072,61.956c-25.158,0-47.9-3.013-65.019-7.952v.033a80.957,80.957,0,0,1-17.815-7.87A134.476,134.476,0,0,0,21.022,59.8c4.956,7.689,6.734,14.423,6.5,14.769-.148.214-1.844-1.992-4.347-5.582-5.8-7-16.811-20.367-19.017-23.775C1.676,41.326,3.091,39.5,3.091,39.5l1.745-3.145a10.642,10.642,0,0,1-.807-3.935c0-8.463,10.9-16.119,28.023-21.635V11.9C49.176,6.981,71.914,3.951,97.072,3.951" transform="translate(66.67 61.101)" fill="#a52b00" />
	<path d="M23.341,29.761s1.218,1.844-.955,5.812c-1.91,3.507-11.509,17.288-16.6,24.516-2.173,3.688-3.639,5.96-3.754,5.746-.214-.346,1.367-7.212,5.68-15.115,2.634-5.516,5.944-13.369,6.9-17.255A50.462,50.462,0,0,1,1.1,41.369V4.537c12.1,5.1,19.33,11.492,19.33,18.424,0,.231-.016.461-.033.692Z" transform="translate(238.251 70.164)" fill="#a52b00" />
	<path d="M230.065,99.892s2.914,1.515,0,6.932c-2.569,4.791-16.547,24.467-23.956,34.79-3.013,5.1-5.1,8.3-5.417,8.117-.494-.3.362-8.693,6.141-19.461,4.248-9.467,9.418-23.792,7.426-24.944,0,0-5.8-5.121-15.362-3.408-83.756,40.948-174.049-.708-174.049-.708-.181-.115.132.132,0,0a17.936,17.936,0,0,0-6.4,4.66c-1.893,1.6,6.108,15.526,12.25,24.582,8.018,10.093,10.406,18.688,9.961,19.083-.3.263-3.062-2.667-7.129-7.393-9.6-9.319-27.809-27.085-31.332-31.563-4.017-5.088-1.284-7.244-1.284-7.244L18.921,84.2l.165-.494-6.372-9.22a3.462,3.462,0,0,1-.362-3.227,3.218,3.218,0,0,1,2.42-2.009l10.784-1.828Q26.2,66.139,26.84,64.9L22.329,54.548a3.437,3.437,0,0,1,.247-3.244,3.207,3.207,0,0,1,2.783-1.482l10.916.4c.543-.741,1.136-1.465,1.712-2.173L35.5,36.93a3.4,3.4,0,0,1,.84-3.112,3.114,3.114,0,0,1,3-.889L49.99,35.547c.692-.609,1.383-1.218,2.091-1.811L51.7,22.343a3.338,3.338,0,0,1,1.416-2.881A3.1,3.1,0,0,1,56.23,19.2l9.912,4.709c.807-.461,1.6-.906,2.4-1.35l1.778-11.229a3.268,3.268,0,0,1,1.91-2.536,3.1,3.1,0,0,1,3.112.362L84.2,15.806c.873-.3,1.745-.576,2.634-.84l3.8-10.636a3.225,3.225,0,0,1,2.371-2.107,3.145,3.145,0,0,1,2.98.988l7.442,8.331c.906-.1,1.811-.2,2.717-.263l5.746-9.7a3.125,3.125,0,0,1,5.433,0l5.763,9.7c.906.066,1.811.165,2.7.263l7.459-8.331a3.1,3.1,0,0,1,2.947-.988,3.248,3.248,0,0,1,2.387,2.107l3.787,10.636c.906.263,1.778.543,2.651.84l8.858-6.652a3.083,3.083,0,0,1,3.1-.362,3.287,3.287,0,0,1,1.926,2.536l1.762,11.229c.807.445,1.614.906,2.4,1.35l9.945-4.709a3.076,3.076,0,0,1,3.1.263,3.338,3.338,0,0,1,1.416,2.881l-.379,11.394c.708.593,1.416,1.2,2.091,1.811l10.653-2.618a3.114,3.114,0,0,1,3,.889,3.4,3.4,0,0,1,.84,3.112l-2.5,11.114q.864,1.062,1.729,2.173l10.916-.4a3.171,3.171,0,0,1,2.783,1.482,3.484,3.484,0,0,1,.247,3.244L202.371,64.9c.445.823.873,1.663,1.3,2.519l10.752,1.828a3.213,3.213,0,0,1,2.453,2.009,3.509,3.509,0,0,1-.362,3.227l-6.372,9.22c.2.642.379,1.268.56,1.91Z" transform="translate(48.634)" fill="#f74c00" />
	<path d="M49.664,25.512V18.976C47.606,16.144,28.293-9.525,4.172,22.3l29.554,2.733s-.181.181-.527.477Z" transform="translate(161.645 100.773)" />
	<path d="M64.464,79.271C31.254,61.851,30,47.428,30,47.428-6.928,20.557,24.635,5.377,24.635,5.377c-.461,17.14,9.7,26.936,9.7,26.936l.922-30.822C69.5,25.678,40.886,48.432,40.886,48.432c4.116,10.225,28.5,19.725,28.5,19.725Z" transform="translate(11.851 23.058)" fill="#f74c00" />
	<path d="M8.2,8.873c-7.738,12.513,0,19.758,0,19.758,6.438,9.22,18.045,0,18.045,0,7.1-6.586,0-19.758,0-19.758-9.023-9.879-18.045,0-18.045,0" transform="translate(172.169 69.318)" />
	<path d="M15.542,11.513c0-3.853-2.272-6.965-5.071-6.965-2.783,0-5.055,3.112-5.055,6.965s2.272,6.965,5.055,6.965c2.8,0,5.071-3.112,5.071-6.965" transform="translate(175.285 70.334)" fill="#fff" />
	<path d="M12.449,6.021c-14.868,23.067,7,27.282,7,27.282,17.123-1,12.711-18.836,12.711-18.836C27.926-.828,12.449,6.021,12.449,6.021" transform="translate(127.65 69.47)" />
	<path d="M18.464,11.73c0-3.968-2.338-7.179-5.219-7.179S8.025,7.762,8.025,11.73s2.338,7.179,5.219,7.179,5.219-3.211,5.219-7.179" transform="translate(129.406 70.38)" fill="#fff" />
	<path d="M83.579,5.767c-2.5,25.553-33.341,37.474-33.341,37.474C21.079,76.45,1.914,53.465,1.914,53.465A36.086,36.086,0,0,0,31.847,38.729C10.262,33.016,2.21,37.709,2.21,37.709,28.044.235,46.27,33.494,46.27,33.494l5.647-1.317C72.021,18.642,75.248,5.767,75.248,5.767Z" transform="translate(164.907 89.185)" fill="#f74c00" />
	<path d="M0,0H221.315V11.047L97.653,20.453,0,11.047Z" transform="matrix(-0.827, -0.562, 0.562, -0.827, 204.507, 161.529)" fill="#6e96ba" />
	<rect width="221.315" height="11.047" transform="matrix(-0.827, -0.562, 0.562, -0.827, 210.718, 152.388)" fill="#89a9cc" />
	<path d="M40.819,31.236,8.449,9.256,2.242,18.394Z" transform="translate(202.264 143.142)" fill="#ccc593" />
	<path d="M34.612,39.835,2.242,17.854,8.449,8.7Z" transform="translate(208.471 134.543)" fill="#e2ddaf" />
	<path d="M19.415,23.612,7.774,9.749,5.008,13.832,2.242,17.9Z" transform="translate(223.668 150.766)" fill="#2b2b2b" />
	<rect width="8.782" height="11.047" transform="translate(27.641 28.034) rotate(-145.774)" fill="#d8d8d8" />
	<path d="M20.163.743,36.151,11.61l-6.207,9.138L17.809,12.5a4.657,4.657,0,0,1-1.235-6.471Z" transform="translate(-15.767 11.49)" fill="#cea097" />
	<path d="M25.451,1.1,37.586,9.353l-6.207,9.138L15.391,7.624,18.98,2.339A4.66,4.66,0,0,1,25.451,1.1" transform="translate(-10.995 4.609)" fill="#d8b1a7" />
	<rect width="8.782" height="11.047" transform="translate(21.431 37.175) rotate(-145.774)" fill="#c1c1c1" />
	<path d="M47.439,45.875,31.551,38.729C9.965,33.016,1.914,37.709,1.914,37.709,27.747.235,45.99,33.494,45.99,33.494l5.631-1.317C71.725,18.642,74.968,5.767,74.968,5.767H83.3C80.8,31.32,49.958,43.241,49.958,43.241c-.856.971-1.679,1.745-2.519,2.634" transform="translate(165.187 89.185)" fill="#f74c00" />
	<path d="M24.634,1.727c-.445,17.14,9.7,26.936,9.7,26.936L46.483,38.773a34.625,34.625,0,0,1-5.6,6.01C45.018,55.007,69.4,64.507,69.4,64.507L64.463,75.621C31.253,58.2,30,43.778,30,43.778-6.929,16.908,24.634,1.727,24.634,1.727" transform="translate(11.852 26.708)" fill="#f74c00" />
	<rect width="280" height="174.378" fill="none" />
</svg>
