<svg xmlns="http://www.w3.org/2000/svg" width="231.228" height="240.004" viewBox="0 0 231.228 240.004">
  <g id="Logo_Icon" data-name="Logo Icon" transform="translate(0.007 0.004)">
    <rect id="Rectangle_52" data-name="Rectangle 52" width="231.221" height="240" transform="translate(0 0)" fill="none"/>
    <path id="Path_54" data-name="Path 54" d="M149.474,6.026a10.475,10.475,0,0,0-8.169-4.72H54.2a10.475,10.475,0,0,0-8.169,4.72L2.477,81.459a10.5,10.5,0,0,0,0,9.429l43.556,75.444a10.465,10.465,0,0,0,8.169,4.71h87.1a10.465,10.465,0,0,0,8.169-4.71l43.556-75.444a10.5,10.5,0,0,0,0-9.429Z" transform="translate(12.232 11.749)" fill="#f1decd"/>
    <path id="Path_55" data-name="Path 55" d="M73.237,112.684l57.085-32.417L98.2,24.622,84.546.974H8.453Z" transform="translate(76.068 8.76)" fill="#3ea8ff"/>
    <path id="Path_56" data-name="Path 56" d="M84.836,50.93,56,.974H16.922L4.873,17.693,39.26,77.248l30.847,53.436,45.926-25.718Z" transform="translate(43.849 8.762)" fill="#2180ce"/>
    <path id="Path_57" data-name="Path 57" d="M69.21,9.294,15.494,35.512,81.788,136.334Z" transform="translate(139.433 83.636)" fill="#deba92"/>
    <path id="Path_58" data-name="Path 58" d="M57.141,11.606,11.565,37.924l93.582,56.815Z" transform="translate(104.078 104.438)" fill="#d49b64"/>
    <path id="Path_59" data-name="Path 59" d="M72.991,159.707l-35-60.615a5,5,0,1,1,8.649-5l35,60.615a5,5,0,1,1-8.649,5m158.187,59.275a9.955,9.955,0,0,1-3.05,8.149c-4.19,5.07-22.408,8.879-36.147,10.769A216.3,216.3,0,0,1,164.5,240c-8.629-.09-20.628-2.26-32.037-2.97-16.109-.99-69.444-2.96-87.763-2.9-20.578.08-24.708-1.1-28.2-4.08-1.36-1.15,10.319-7.019,35.027-9.029,60.215-4.91,113.311-5.5,131.419-4.63a86.235,86.235,0,0,1,21.468,3.83l-38.587-27.678a19.952,19.952,0,0,1-10.849,3.32H64.991a20.009,20.009,0,0,1-17.319-10l-45-77.933a20.011,20.011,0,0,1,0-20L47.673,10A20.009,20.009,0,0,1,64.991,0h89.992a20.013,20.013,0,0,1,17.329,10l33.187,57.5,11.8,20.438-.04.02.02.01.03-.03.06.15a2.722,2.722,0,0,1,.11.25,19.993,19.993,0,0,1,2.45,8.089c.03.48,10.319,112.471,11.179,121.86ZM60.772,27.308,116.9,124.54A87.866,87.866,0,0,1,138.305,122l14.769-20.078,24.768-2.75a87.882,87.882,0,0,1,12.889-17.259L157.474,24.3a9.621,9.621,0,0,0-7.489-4.31H69.991a9.618,9.618,0,0,0-7.5,4.33Zm81.813,148.558-30.927-22.178a9.831,9.831,0,0,1-2.79-3.15l-.04.02L49.223,47.316,22.495,93.6a9.636,9.636,0,0,0,0,8.659l40,69.274a9.618,9.618,0,0,0,7.5,4.33Zm63.8-4.26-7.029-70.9a91.359,91.359,0,0,0-11.519,15.789l-24.768,2.75L148.3,139.318a91.516,91.516,0,0,0-19.448,2.09l57.9,41.527a19.214,19.214,0,0,1,19.638-11.329" transform="translate(-0.007 -0.004)" fill="#473a3a"/>
  </g>
</svg>
