<svg viewBox="0 0 48 48" xmlns="http://www.w3.org/2000/svg">
	<path fill="#803847" d="M41.94,11.34c1.95-1.16,3.4-3,4.1-5.16c-1.83,1.09-3.83,1.85-5.92,2.26C36.6,4.69,30.7,4.51,26.95,8.03c-1.88,1.76-2.94,4.22-2.94,6.79c0,0.71,0.08,1.42,0.24,2.12c-7.49-0.37-14.48-3.91-19.21-9.74c-2.47,4.26-1.21,9.71,2.88,12.44C6.44,19.6,4.99,19.2,3.7,18.49v0.12c0,4.44,3.13,8.26,7.47,9.14c-1.37,0.37-2.81,0.42-4.21,0.16c1.22,3.79,4.72,6.39,8.7,6.47c-3.3,2.59-7.37,3.99-11.57,3.98c-0.74,0-1.49-0.04-2.22-0.13c4.26,2.74,9.22,4.19,14.28,4.19c17.14,0,26.51-14.2,26.51-26.51c0-0.4-0.01-0.8-0.03-1.2c1.82-1.32,3.4-2.95,4.65-4.82l0-0.01C45.59,10.63,43.78,11.12,41.94,11.34z" />
</svg>
