<svg viewBox="0 0 937 240" xmlns="http://www.w3.org/2000/svg" xmlns:xlink="http://www.w3.org/1999/xlink" version="1.1">
	<path d="M934.29,139.3c-3.08,2.94-6.82,5.09-10.91,6.27c-3.49,1.06-7.1,1.63-10.74,1.71c-6.08,0.08-11.98-2.06-16.6-6.02c-4.78-4.01-7.49-10.63-8.14-19.86l48.01-6.02c0-8.68-2.58-15.71-7.73-21.08c-5.16-5.37-12.72-8.06-22.7-8.06c-7.19-0.04-14.29,1.57-20.75,4.72c-6.37,3.07-11.75,7.86-15.54,13.83c-3.91,6.08-5.86,13.46-5.86,22.14c0,8.03,1.76,14.98,5.29,20.83c3.41,5.76,8.38,10.44,14.32,13.51c6.21,3.19,13.11,4.81,20.1,4.72c9.01,0,16.14-2.2,21.41-6.59c5.51-4.74,9.78-10.74,12.45-17.5L934.29,139.3z M891.64,99.01c2.28-3.85,5.26-5.78,8.95-5.78c3.79,0,6.48,1.84,8.06,5.53c1.68,4.2,2.59,8.66,2.69,13.18l-23.6,2.93C888.06,108.15,889.37,102.86,891.64,99.01" />
	<path d="M844.61,151.33c-7.06,0-10.58-4.34-10.58-13.02v-34.5c0-4.34,2.17-6.51,6.51-6.51h14.65v-8.62h-21.16c0-4.12,0.05-8.19,0.16-12.21c0.11-4.01,0.59-11.63,0.91-15.76l-25.49,11.81v16.16h-9.77v8.62h9.77v44.27c0,7.16,2.01,13.02,6.02,17.58c4.01,4.56,9.87,6.83,17.58,6.84c4.07,0.13,8.11-0.71,11.8-2.44c3.03-1.49,5.72-3.6,7.89-6.18c1.98-2.37,3.62-5,4.88-7.81l-2.6-2.6C852.42,149.81,848.59,151.4,844.61,151.33" />
	<path d="M783.25,154.67c-0.64-2.97-0.91-6-0.81-9.03v-38.9c0-5.21,0.08-9.52,0.24-12.94s0.3-5.94,0.41-7.57l-0.98-0.98l-35.48,16.44l1.63,3.74c1.09-0.4,2.2-0.73,3.34-0.98c0.94-0.21,1.89-0.31,2.85-0.32c0.97-0.07,1.92,0.22,2.69,0.81c0.59,0.54,0.89,1.63,0.9,3.26v37.43c0.08,3.03-0.14,6.05-0.65,9.03c-0.44,2.01-1.2,3.34-2.28,3.99c-1.35,0.73-2.86,1.12-4.39,1.14v3.74h41.5v-3.74c-2.06,0-4.1-0.39-6.02-1.14C784.64,157.85,783.56,156.38,783.25,154.67 M771.04,77.28c3.74,0.07,7.35-1.44,9.93-4.15c2.64-2.59,4.11-6.15,4.07-9.85c0.03-3.72-1.44-7.3-4.07-9.93c-2.56-2.75-6.17-4.29-9.93-4.23c-3.81-0.09-7.48,1.45-10.09,4.23c-2.64,2.63-4.1,6.21-4.07,9.93c0.02,7.75,6.32,14.02,14.07,14C770.98,77.29,771.01,77.29,771.04,77.28" />
	<path d="M732.15,154.68c-0.64-2.97-0.91-6-0.81-9.03v-39.22c0-7.05-1.57-12.18-4.72-15.38c-3.15-3.2-8.08-4.8-14.81-4.8c-4.06,0.01-8.07,0.84-11.8,2.44c-3.08,1.21-6.03,2.75-8.79,4.57c-3.07,2.01-5.99,4.25-8.71,6.72V61.55c0-5.21,0.08-9.52,0.24-12.94c0.16-3.42,0.3-5.94,0.41-7.57L682.11,40l-35.45,16.42l1.66,3.82c1.09-0.4,2.2-0.73,3.34-0.98c0.94-0.21,1.89-0.32,2.85-0.33c0.96-0.07,1.92,0.22,2.68,0.81c0.6,0.55,0.9,1.63,0.9,3.26v82.63c0.08,3.03-0.14,6.05-0.65,9.03c-0.43,2.01-1.19,3.34-2.28,3.99c-1.35,0.73-2.86,1.12-4.4,1.14v3.74h41.5v-3.74c-2.06,0-4.1-0.38-6.02-1.14c-1.54-0.81-2.62-2.28-2.93-3.99c-0.64-2.97-0.91-6-0.82-9.03v-37.92c2.72-1.87,5.71-3.29,8.87-4.23c2.26-0.61,4.58-0.94,6.92-0.98c3.79,0,6.18,1,7.16,3.01c1.06,2.43,1.56,5.08,1.46,7.73v32.39c0.08,3.03-0.14,6.05-0.65,9.03c-0.43,2.01-1.19,3.34-2.28,3.99c-1.35,0.73-2.86,1.12-4.4,1.14v3.74h41.5v-3.74c-2.06,0-4.1-0.38-6.02-1.14c-1.54-0.81-2.62-2.28-2.93-3.99" />
	<path d="M624.97,90.71c-4.3-2.92-9.37-4.48-14.57-4.48c-5.74-0.16-11.38,1.43-16.19,4.56c-4.26,2.76-7.67,6.65-9.85,11.23h-0.32c0-3.26,0.12-6.35,0.39-9.49c0.14-2.07,0.38-4.14,0.73-6.18l-0.98-0.98l-33.84,15.68l1.63,3.74c1.49-0.4,3.02-0.62,4.56-0.65c0.97-0.07,1.92,0.22,2.69,0.81c0.6,0.54,0.9,1.63,0.9,3.25v73.9c0.08,3.02-0.14,6.05-0.65,9.03c-0.43,2.01-1.19,3.34-2.28,3.99c-1.35,0.72-2.86,1.11-4.39,1.14V200h43.12v-3.74c-2.46,0.01-4.9-0.38-7.24-1.14c-1.71-0.68-2.96-2.18-3.33-3.99c-0.64-2.97-0.91-6-0.81-9.03v-16.76c1.52,0.22,3.17,0.38,4.96,0.49s3.77,0.16,5.94,0.16c5.18-0.03,10.33-0.8,15.3-2.28c5.21-1.52,10.1-4.01,14.4-7.32c4.5-3.5,8.15-7.98,10.66-13.1c2.71-5.37,4.07-11.96,4.07-19.78c0-7.81-1.36-14.49-4.07-20.02C633.4,98.33,629.66,93.92,624.97,90.71 M608.94,150.61c-3.26,5.04-7.27,7.57-12.04,7.57c-5.21,0-9.33-2.39-12.37-7.16v-43.3c1.7-1.75,3.75-3.11,6.02-3.99c2.03-0.79,4.18-1.2,6.35-1.22c4.77,0,8.79,2.31,12.04,6.92c3.26,4.61,4.88,11.64,4.88,21.08C613.82,138.86,612.19,145.57,608.94,150.61" />
	<path d="M541.31,150.61c-1.17,0.45-2.41,0.7-3.66,0.73c-1.95,0-3.25-0.68-3.91-2.03c-0.74-1.83-1.07-3.81-0.98-5.78v-35.48c0-12.25-7.16-19.5-19.95-21.8c-8.97-1.62-19.39-1.04-28.28,0.57c-5.06,0.92-10.37,2.79-13.57,5.49v23.95h3.71c0.91-5.48,3.36-10.58,7.07-14.72c3.2-3.81,7.96-5.97,12.94-5.86c3.8,0,6.75,1.11,8.87,3.34c2.12,2.23,3.17,5.89,3.17,10.99v8.63c-13.78,3.69-23.95,7.76-30.52,12.21s-9.85,10.25-9.85,17.42c-0.06,4.5,1.47,8.88,4.31,12.36c2.87,3.58,7.29,5.37,13.27,5.37c4.5-0.01,8.92-1.16,12.86-3.34c4.18-2.27,7.62-5.69,9.93-9.85h0.33c0.95,3.66,3.1,6.9,6.1,9.2c2.87,2.12,6.97,3.17,12.29,3.17c4.71,0.08,9.34-1.19,13.35-3.66c4.15-2.73,7.43-6.6,9.44-11.15l-2.6-2.6C544.39,148.99,542.93,149.96,541.31,150.61 M506.73,146.3c-1.27,1.36-2.72,2.54-4.31,3.5c-1.74,1.05-3.75,1.58-5.78,1.54c-2.11,0.12-4.16-0.75-5.53-2.36c-1.32-1.63-2.02-3.68-1.95-5.78c0.09-1.95,0.5-3.88,1.22-5.7c1.09-2.66,2.82-5.01,5.05-6.84c2.55-2.28,6.32-4.12,11.31-5.53L506.73,146.3z" />
	<path d="M440.68,91.63c-4.8,1.93-9.07,4.75-11.91,9.87h-0.33c-0.02-2.98,0.11-5.96,0.41-8.92c0.13-2.13,0.37-4.25,0.73-6.35l-0.98-0.98l-33.85,15.79l1.63,3.74c1.49-0.4,3.02-0.62,4.56-0.65c0.97-0.07,1.92,0.22,2.69,0.82c0.59,0.54,0.89,1.63,0.9,3.25v37.44c0.08,3.03-0.14,6.05-0.65,9.03c-0.43,2.01-1.19,3.34-2.28,3.99c-1.35,0.73-2.86,1.12-4.4,1.14v3.74h43.13v-3.74c-2.46,0.01-4.9-0.38-7.24-1.14c-1.71-0.68-2.97-2.18-3.34-3.99c-0.64-2.97-0.91-6-0.82-9.03v-36.29c2.1-1.79,4.53-3.15,7.16-3.99c2.49-0.72,5.06-1.08,7.65-1.06c2.42,0.01,4.78,0.68,6.84,1.95c2.17,1.3,3.71,5.12,4.48,10h4.1V92.3C455.3,89.03,446.61,89.25,440.68,91.63" />
	<path d="M344.13,115.53c2.68,0.05,5.32,0.57,7.81,1.55c1.73,0.81,2.9,2.6,3.5,5.37c0.72,4.38,1.02,8.82,0.9,13.26c0,3.8-0.04,6.29-0.2,9.22c-0.16,2.93-0.39,4.51-1.58,6.47c-1.63,2.71-4.43,4-7.41,4.59c-2.7,0.57-5.46,0.87-8.22,0.9c-6.29,0-12.7-1.98-16.81-5.14c-5.27-4.05-9.38-11.35-12.04-19.92c-2.4-8.27-3.58-16.84-3.51-25.45c0-14.54,4.01-24.17,9.38-31.43c5.46-7.37,14.61-11.25,25-11.89c4.13-0.21,8.27,0.21,12.28,1.25c3.63,1.12,7.4,2.65,10.43,6.07c3.03,3.42,4.67,7.11,6.85,13.4h3.74v-24.9c-4.86-1.84-9.87-3.25-14.97-4.23c-5.73-1.18-11.56-1.78-17.41-1.79c-8.11-0.06-16.17,1.23-23.85,3.82c-7.23,2.44-13.91,6.25-19.69,11.23c-5.77,5.04-10.36,11.29-13.43,18.31c-3.38,7.91-5.05,16.46-4.88,25.07c0,10.96,2.39,20.57,7.16,28.81c4.6,8.07,11.36,14.7,19.53,19.12c8.5,4.57,18.02,6.89,27.67,6.76c7.53,0.11,15.02-0.97,22.22-3.18c5.71-1.74,11.2-4.14,16.36-7.16c3.26-1.87,6.32-4.08,9.11-6.59c-0.63-2.67-1.01-5.4-1.14-8.14c-0.11-2.61-0.16-5.37-0.16-8.3v-9.44c0-2.82,0.3-4.77,0.9-5.86c0.66-1.12,1.87-1.81,3.17-1.79v-3.74h-40.7V115.53z" />
	<path d="M231.18,218.98l-0.07-0.69c-0.86-9.39-11.15-121.38-11.18-121.86c-0.23-2.84-1.07-5.6-2.45-8.09c-0.03-0.09-0.07-0.17-0.11-0.25l-0.06-0.15l-0.03,0.03l-0.02-0.01l0.04-0.02L205.5,67.5L172.31,10c-3.58-6.19-10.18-10-17.33-10H64.99c-7.14,0-13.74,3.81-17.32,10l-45,77.93c-3.57,6.19-3.57,13.81,0,20l45,77.93c3.57,6.19,10.17,10,17.32,10h89.99c3.86-0.03,7.63-1.19,10.85-3.32l38.59,27.68c-6.97-2.18-14.18-3.47-21.47-3.83c-18.11-0.87-71.2-0.28-131.42,4.63c-24.71,2.01-36.39,7.88-35.03,9.03c3.49,2.98,7.62,4.16,28.2,4.08c18.32-0.06,71.65,1.91,87.76,2.9c11.41,0.71,23.41,2.88,32.04,2.97c9.2-0.12,18.37-0.82,27.48-2.1c13.74-1.89,31.96-5.7,36.15-10.77C230.34,225.03,231.47,222.02,231.18,218.98z M62.49,24.32c1.67-2.55,4.45-4.16,7.5-4.33h79.99c3.04,0.17,5.81,1.77,7.49,4.31l33.26,57.61c-4.99,5.2-9.32,11-12.89,17.26l-24.77,2.75L138.3,122c-7.21-0.04-14.4,0.82-21.4,2.54L60.77,27.31L62.49,24.32z M69.99,175.86c-3.05-0.17-5.83-1.78-7.5-4.33l-40-69.27c-1.37-2.72-1.37-5.94,0-8.66l26.73-46.28l59.6,103.24l0.04-0.02c0.69,1.24,1.64,2.31,2.79,3.15l30.93,22.18L69.99,175.86z M186.75,182.93l-57.9-41.53c6.39-1.39,12.91-2.09,19.45-2.09l14.77-20.07l24.77-2.75c3.26-5.66,7.13-10.95,11.52-15.79l7.03,70.9C198.07,170.71,190.13,175.29,186.75,182.93z M81.64,154.71c1.49,2.33,0.8,5.42-1.52,6.91c-2.33,1.49-5.42,0.8-6.91-1.52c-0.08-0.12-0.15-0.25-0.22-0.38l-35-60.61c-1.49-2.33-0.8-5.42,1.52-6.91c2.33-1.49,5.42-0.8,6.91,1.52c0.08,0.12,0.15,0.25,0.22,0.38L81.64,154.71z" />
</svg>
