<svg xmlns="http://www.w3.org/2000/svg" viewBox="0 0 24 24">
	<g transform="translate(7 7)">
		<path fill="#ffffff" d="M15.22-2.74l-9-4c-0.78-0.34-1.66-0.34-2.44,0l-9,4C-6.3-2.26-7-1.19-7,0v10c0,1.19,0.7,2.26,1.78,2.74l9,4C4.17,16.91,4.58,17,5,17s0.83-0.09,1.22-0.26l9-4C16.3,12.26,17,11.19,17,10V0C17-1.19,16.3-2.26,15.22-2.74z" />
		<path fill="#dd83ff" d="M13.38,8.93L6,5.47c-0.64-0.26-1.36-0.26-2,0l-7.38,3.46c-0.83,0.39-0.83,1.02,0,1.41L4,13.81c0.64,0.26,1.36,0.26,2.01,0l7.38-3.46C14.21,9.96,14.21,9.32,13.38,8.93z" />
		<path style="opacity:0.4; fill:url(#bottom)" d="M13.38,8.93L6,5.47c-0.64-0.26-1.36-0.26-2,0l-7.38,3.46c-0.83,0.39-0.83,1.02,0,1.41L4,13.81c0.64,0.26,1.36,0.26,2.01,0l7.38-3.46C14.21,9.96,14.21,9.32,13.38,8.93z" />
		<path fill="#eac800" d="M13.38,4.29L6,0.83c-0.64-0.26-1.36-0.26-2,0l-7.38,3.46c-0.83,0.39-0.83,1.02,0,1.41L4,9.17c0.64,0.26,1.36,0.26,2.01,0l7.38-3.46C14.21,5.32,14.21,4.68,13.38,4.29z" />
		<path style="opacity:0.4; fill:url(#middle)" d="M13.38,4.29L6,0.83c-0.64-0.26-1.36-0.26-2,0l-7.38,3.46c-0.83,0.39-0.83,1.02,0,1.41L4,9.17c0.64,0.26,1.36,0.26,2.01,0l7.38-3.46C14.21,5.32,14.21,4.68,13.38,4.29z" />
		<path fill="#6eebff" d="M13.38-0.35L6-3.81c-0.64-0.26-1.36-0.26-2,0l-7.38,3.46c-0.83,0.39-0.83,1.02,0,1.41L4,4.53c0.64,0.26,1.36,0.26,2.01,0l7.38-3.46C14.21,0.68,14.21,0.04,13.38-0.35z" />
		<path style="opacity:0.4; fill:url(#top)" d="M13.38-0.35L6-3.81c-0.64-0.26-1.36-0.26-2,0l-7.38,3.46c-0.83,0.39-0.83,1.02,0,1.41L4,4.53c0.64,0.26,1.36,0.26,2.01,0l7.38-3.46C14.21,0.68,14.21,0.04,13.38-0.35z" />
	</g>
	<linearGradient id="top" gradientUnits="userSpaceOnUse" x1="10.5551" y1="-26.454" x2="10.5551" y2="-25.454" gradientTransform="matrix(18.0005 0 0 -8.7219 -184.997 -226.0052)">
		<stop offset="0" style="stop-color:#000000; stop-opacity:0" />
		<stop offset="0.91" style="stop-color:#000000; stop-opacity:0.796" />
		<stop offset="1" style="stop-color:#000000" />
	</linearGradient>
	<linearGradient id="middle" gradientUnits="userSpaceOnUse" x1="10.5551" y1="-26.459" x2="10.5551" y2="-25.459" gradientTransform="matrix(18.0005 0 0 -8.7209 -184.997 -221.3842)">
		<stop offset="0" style="stop-color:#000000; stop-opacity:0" />
		<stop offset="0.91" style="stop-color:#000000; stop-opacity:0.796" />
		<stop offset="1" style="stop-color:#000000" />
	</linearGradient>
	<linearGradient id="bottom" gradientUnits="userSpaceOnUse" x1="10.5551" y1="-26.454" x2="10.5551" y2="-25.454" gradientTransform="matrix(18.0005 0 0 -8.7219 -184.997 -216.7282)">
		<stop offset="0" style="stop-color:#000000; stop-opacity:0" />
		<stop offset="0.91" style="stop-color:#000000; stop-opacity:0.796" />
		<stop offset="1" style="stop-color:#000000" />
	</linearGradient>
</svg>
