<svg xmlns="http://www.w3.org/2000/svg" viewBox="0 0 24 24">
	<g transform="translate(7 7)">
		<path style="fill:#FFFFFF" d="M15.22-2.74l-9-4c-0.78-0.34-1.66-0.34-2.44,0l-9,4C-6.3-2.26-7-1.19-7,0v10c0,1.19,0.7,2.26,1.78,2.74l9,4C4.17,16.91,4.58,17,5,17s0.83-0.09,1.22-0.26l9-4C16.3,12.26,17,11.19,17,10V0C17-1.19,16.3-2.26,15.22-2.74z" />
		<path style="opacity:0.4; fill:url(#top)" d="M13.38-0.35L6-3.81c-0.64-0.26-1.36-0.26-2,0l-7.38,3.46c-0.83,0.39-0.83,1.02,0,1.41L4,4.53c0.64,0.26,1.36,0.26,2.01,0l7.38-3.46C14.21,0.68,14.21,0.04,13.38-0.35z" />
	</g>
	<path d="m 7.9458126,20.892858 v 0.756504 c 1.4877912,-0.05043 2.3703794,-0.07565 3.6816524,-0.07565 1.311274,0 2.219079,0.02522 3.70687,0.07565 v -0.756504 l -1.210406,-0.07565 c -1.159973,-0.05043 -1.26084,-0.252168 -1.286057,-2.269512 V 7.8809886 c 0,-1.2860568 0.02522,-1.7903928 0.100867,-2.52168 h 3.908604 c 0.731287,0.025217 0.958239,0.2017344 1.008672,0.8321544 l 0.100867,1.9921272 h 0.781721 c 0,-1.639092 0.05043,-2.6225472 0.176518,-4.0599049 l -3.353835,0.050434 c -1.437357,0.025217 -1.689525,0.025217 -2.092994,0.025217 H 9.4840374 c -0.3026016,0 -1.639092,-0.025217 -3.4042681,-0.050434 L 4.3650269,4.1236853 C 4.4911109,5.561043 4.5415445,6.5444982 4.5415445,8.1835902 H 5.3232653 L 5.4241325,6.191463 c 0.050434,-0.63042 0.252168,-0.8069376 1.008672,-0.8321544 h 3.9086045 c 0.07565,0.7817208 0.100867,1.3617072 0.100867,2.52168 V 18.547695 c -0.02522,2.042561 -0.126084,2.219079 -1.286057,2.269512 z" style="fill: black;"/>
</svg>
