<svg xmlns="http://www.w3.org/2000/svg" viewBox="0 0 24 24">
	<path fill="#ffffff" d="M23.34,4.06c0.14-0.94-0.18-1.88-0.85-2.55s-1.62-0.98-2.55-0.85c-5.27,0.77-10.61,0.77-15.88,0C3.12,0.53,2.18,0.84,1.51,1.51S0.53,3.13,0.66,4.06c0.77,5.27,0.77,10.61,0,15.88c-0.14,0.94,0.18,1.88,0.85,2.55s1.62,0.98,2.55,0.85c5.27-0.77,10.61-0.77,15.88,0c0.14,0.02,0.29,0.03,0.43,0.03c0.79,0,1.55-0.31,2.12-0.88c0.67-0.67,0.98-1.62,0.85-2.55C22.57,14.67,22.57,9.33,23.34,4.06z" />
	<path fill="#65bbe5" d="M19.89,9.01c-0.17,0.02-2.18,0.26-4.89,1.01V9H9v3.28c-1.6,0.79-3.2,1.75-4.64,2.95c-0.42,0.35-0.48,0.98-0.13,1.41C4.43,16.88,4.71,17,5,17c0.23,0,0.45-0.08,0.64-0.23C6.68,15.9,7.83,15.16,9,14.53V15h6v-2.9c2.88-0.84,5.07-1.1,5.11-1.11c0.55-0.06,0.94-0.56,0.88-1.11C20.93,9.34,20.43,8.95,19.89,9.01z M13,13h-2v-2h2V13z" />
</svg>
