<svg xmlns="http://www.w3.org/2000/svg" viewBox="0 0 24 24">
	<path d="M23.56,21.45l-6.68-6.69C15.64,16.7,13.47,18,11,18c-3.86,0-7-3.14-7-7c0-2.56,1.39-4.8,3.45-6.02L7.36,4.94L5.25,4.08C3.26,5.73,2,8.22,2,11c0,4.97,4.03,9,9,9c1.95,0,3.74-0.63,5.21-1.68l5.23,5.24c0.58,0.59,1.53,0.59,2.12,0C24.15,22.98,24.15,22.03,23.56,21.45z" />
	<path class="color-general" d="M19.92,9.97c-0.23-2.01-1.12-3.89-2.56-5.33c-1.44-1.44-3.32-2.33-5.33-2.56l-0.2-1.48L7.89,3.65l4.61,1.89l-0.19-1.4c1.37,0.26,2.64,0.91,3.64,1.91c1,1,1.66,2.27,1.91,3.64l-1.4-0.19l1.89,4.61l3.05-3.94L19.92,9.97z" />
	<path d="M7.82,14.88c-0.18,0-0.36-0.07-0.5-0.21C6.34,13.69,5.8,12.39,5.8,11s0.54-2.69,1.52-3.68c0.27-0.27,0.72-0.27,0.99,0s0.27,0.72,0,0.99C7.6,9.03,7.2,9.98,7.2,11s0.4,1.97,1.11,2.69c0.27,0.27,0.27,0.72,0,0.99C8.18,14.81,8,14.88,7.82,14.88z" />
</svg>
