<svg xmlns="http://www.w3.org/2000/svg" viewBox="0 0 24 24">
	<path class="color-general" d="M13.6,14c0-0.77,0.63-1.4,1.4-1.4c0.75-0.02,1.38,0.58,1.4,1.33c0,0.02,0,0.04,0,0.07c0,0.77-0.63,1.4-1.4,1.4S13.6,14.77,13.6,14z M15,11.4c0.77,0,1.4-0.63,1.4-1.4c0-0.02,0-0.04,0-0.07C16.38,9.18,15.75,8.58,15,8.6c-0.77,0-1.4,0.63-1.4,1.4S14.23,11.4,15,11.4z M20,18c0-0.55-0.45-1-1-1c-0.54,0.04-0.96,0.46-1,1c0,0.55,0.45,1,1,1C19.54,18.96,19.96,18.54,20,18z M16.4,18c0-0.77-0.63-1.4-1.4-1.4s-1.4,0.63-1.4,1.4c0.03,0.37,0.17,0.72,0.4,1h2C16.23,18.72,16.37,18.37,16.4,18z M12.7,18c0-0.99-0.8-1.8-1.79-1.8c0,0-0.01,0-0.01,0c-0.94,0-1.71,0.77-1.7,1.72c0,0.03,0,0.05,0,0.08c-0.01,0.36,0.1,0.71,0.3,1h2.9C12.6,18.71,12.71,18.36,12.7,18z M11,11.8c0.99,0,1.8-0.81,1.8-1.8c0,0,0-0.01,0-0.01C12.8,9,11.99,8.2,11,8.2c-0.99,0-1.8,0.81-1.8,1.8S10.01,11.8,11,11.8z M11,15.8c0.99,0,1.8-0.81,1.8-1.8c0,0,0-0.01,0-0.01c0-0.99-0.81-1.79-1.8-1.79c-0.99,0-1.8,0.81-1.8,1.8S10.01,15.8,11,15.8z M19,11c0.55,0,1-0.45,1-1s-0.45-1-1-1s-1,0.45-1,1S18.45,11,19,11z M9.2,6c0,0.99,0.8,1.8,1.8,1.8c0.99,0,1.8-0.8,1.8-1.8c0,0,0,0,0,0c0.01-0.36-0.1-0.71-0.3-1h-3C9.34,5.31,9.24,5.65,9.2,6z M3,5h5.7C8.9,5.22,9.01,5.5,9,5.8C9.11,6.9,8.3,7.89,7.2,8C8.15,8.1,8.9,8.85,9,9.8c0.11,1.1-0.7,2.09-1.8,2.2c0.95,0.1,1.7,0.85,1.8,1.8c0.11,1.1-0.7,2.09-1.8,2.2c0.97,0.07,1.73,0.83,1.8,1.8c0,0.42-0.11,0.83-0.3,1.2H3V5z M4,8c0.52,0.28,0.91,0.75,1.1,1.3C5.41,8.61,6.05,8.12,6.8,8C6.05,7.88,5.41,7.39,5.1,6.7C4.91,7.25,4.52,7.72,4,8z M4,12c0.52,0.28,0.91,0.75,1.1,1.3c0.29-0.71,0.94-1.21,1.7-1.3c-0.76-0.09-1.41-0.59-1.7-1.3C4.91,11.25,4.52,11.72,4,12z M4,16c0.49,0.31,0.88,0.76,1.1,1.3c0.29-0.71,0.94-1.21,1.7-1.3c-0.76-0.09-1.41-0.59-1.7-1.3C4.91,15.25,4.52,15.72,4,16z M13.6,6c0,0.77,0.63,1.4,1.4,1.4s1.4-0.63,1.4-1.4c0,0,0,0,0,0c-0.03-0.37-0.17-0.72-0.4-1h-2C13.77,5.28,13.63,5.63,13.6,6z M18,6c0,0.55,0.45,1,1,1c0.54-0.04,0.96-0.46,1-1c0-0.55-0.45-1-1-1C18.46,5.04,18.04,5.46,18,6z M19,15c0.55,0,1-0.45,1-1s-0.45-1-1-1s-1,0.45-1,1S18.45,15,19,15z" />
	<path d="M20.5,20h-17C2.67,20,2,19.33,2,18.5v-13C2,4.67,2.67,4,3.5,4h17C21.33,4,22,4.67,22,5.5v13C22,19.33,21.33,20,20.5,20z M3.5,5C3.22,5,3,5.22,3,5.5v13C3,18.78,3.22,19,3.5,19h17c0.28,0,0.5-0.22,0.5-0.5v-13C21,5.22,20.78,5,20.5,5H3.5z" />
</svg>
