<svg xmlns="http://www.w3.org/2000/svg" viewBox="0 0 24 24">
	<path class="color-general" d="M19.78,7.76l2.49-2.49c0.96-0.96,0.98-2.52,0.04-3.5l0,0c-0.97-1.01-2.58-1.03-3.57-0.04l-2.49,2.49l-1.06-1.06c-0.39-0.39-1.02-0.39-1.41,0l-1.46,1.46l7.07,7.07l1.46-1.46c0.39-0.39,0.39-1.02,0-1.41L19.78,7.76z" />
	<path d="M15.63,9.93L5.9,19.65c-0.12,0.08-0.59,0.15-0.9,0.2c-0.32,0.05-0.68,0.1-1.05,0.2c0.09-0.38,0.15-0.73,0.2-1.05c0.05-0.31,0.12-0.78,0.18-0.88l9.74-9.74l-0.99-0.99c0,0-8.88,8.88-9.74,9.74c-0.86,0.86-0.24,2.89-1.66,4.31l0.88,0.88c1.41-1.41,3.45-0.8,4.31-1.66s9.74-9.74,9.74-9.74L15.63,9.93z" />
</svg>
