<svg xmlns="http://www.w3.org/2000/svg" viewBox="0 0 24 24">
	<path d="M17.32,6.6c-1.72-1.69-3.77-3.01-6.01-3.89l-1.2,1.2C7.52,0.35,6.7-0.07,5.93,0.37c-0.45,0.26-1.2,0.69,1.11,6.62L0,14.02c0.88,2.24,2.2,4.29,3.89,6.01c1.72,1.69,3.77,3.01,6.01,3.89l11.31-11.31h0C20.33,10.37,19.01,8.32,17.32,6.6z M7.08,2.49c0.42,0.48,1.05,1.25,1.95,2.5L8.21,5.81C7.7,4.47,7.3,3.31,7.08,2.49z M9.55,22.15c-1.7-0.79-3.26-1.86-4.6-3.17c-1.31-1.35-2.38-2.9-3.17-4.61l5.86-5.86c0.45,1.08,0.97,2.32,1.6,3.72c-0.26,0.31-0.42,0.69-0.42,1.13c0,0.97,0.78,1.75,1.75,1.75s1.75-0.78,1.75-1.75c0-0.95-0.76-1.72-1.71-1.75c-0.63-1.44-1.25-2.91-1.8-4.27l2.05-2.05c0.87,1.65,1.98,3.16,3.29,4.49c1.33,1.31,2.84,2.42,4.49,3.29L9.55,22.15z M15.2,8.72c-1.34-1.37-2.46-2.95-3.3-4.67c1.74,0.81,3.34,1.92,4.72,3.26c1.34,1.38,2.45,2.97,3.26,4.71C18.15,11.18,16.57,10.07,15.2,8.72z" />
	<path class="color-general" d="M23.18,17.45c-0.32-0.82-0.82-2.09-1.47-3.32c-1.21,1.18-2.28,2.43-3.06,3.58C15.01,23.04,19.44,24,20.52,24S25.73,23.98,23.18,17.45z" />
</svg>
