<svg xmlns="http://www.w3.org/2000/svg" viewBox="0 0 24 24">
	<path d="M10.1,22.1c0.5,0.6,1.3,0.9,1.9,0.9c1,0,2.3-0.7,2.4-2L10.1,22.1z" />
	<path d="M9.5,19.4c0,0.4,0,0.9,0.1,1.5c0,0,0,0.1,0,0.1l4.8-1.2c0-0.7,0.1-1.2,0.2-1.6L9.5,19.4z" />
	<path class="color-raster" d="M12,4c-3.3,0-6,2.8-6,6.1c0,0,0,0,0,0c0,3.6,2.2,4.5,3,6.6c0.2,0.5,0.3,1,0.4,1.5l5.5-1.4c0,0,0-0.1,0-0.1c0.8-2.1,3-3,3-6.6C18,6.8,15.3,4,12,4C12,4,12,4,12,4z M12.5,15.8c-0.4,0.6-1.1,0.9-1.7,0.7c-0.4-0.4-0.4-1-0.1-1.5c0.3-0.5,1.3-1.2,1.7-0.9C12.8,14.5,12.9,15.3,12.5,15.8z M12.3,12.7c-0.5,0.2-1,0.3-1.5,0.2c-0.2-1.9-0.3-3.8-0.2-5.7c0,0,1.7-2.2,3.5-1.4C14.2,5.8,12.8,11.8,12.3,12.7L12.3,12.7z" />
	<path d="M3.8,12.7l-1.4,0.6c-0.4,0.2-0.6,0.6-0.4,1c0.1,0.3,0.4,0.5,0.7,0.5c0.1,0,0.2,0,0.3-0.1l1.4-0.6c0.4-0.2,0.6-0.6,0.4-1S4.2,12.5,3.8,12.7z" />
	<path d="M4.3,6.1L3,5.5c-0.4-0.2-0.8,0-1,0.4c-0.2,0.4,0,0.8,0.4,1l1.4,0.6c0.1,0,0.2,0.1,0.3,0.1c0.3,0,0.6-0.2,0.7-0.5C4.9,6.7,4.7,6.3,4.3,6.1z" />
	<path d="M19.9,7.6c0.1,0,0.2,0,0.3-0.1l1.4-0.6c0.4-0.2,0.6-0.6,0.4-1c-0.2-0.4-0.6-0.6-1-0.4l-1.4,0.6c-0.4,0.2-0.6,0.6-0.4,1C19.4,7.4,19.6,7.6,19.9,7.6z" />
	<path d="M21.6,13.3l-1.4-0.6c-0.4-0.2-0.8,0-1,0.4c-0.2,0.4,0,0.8,0.4,1l1.4,0.6c0.1,0,0.2,0.1,0.3,0.1c0.3,0,0.6-0.2,0.7-0.5C22.2,13.9,22,13.4,21.6,13.3z" />
	<path d="M8.8,0.5c-0.2-0.4-0.6-0.6-1-0.4c-0.4,0.2-0.6,0.6-0.4,1L8,2.4c0.1,0.3,0.4,0.5,0.7,0.5c0.1,0,0.2,0,0.3-0.1c0.4-0.2,0.6-0.6,0.4-1L8.8,0.5z" />
	<path d="M16.2,0.1c-0.4-0.2-0.8,0-1,0.4l-0.6,1.4c-0.2,0.4,0,0.8,0.4,1c0.1,0,0.2,0.1,0.3,0.1c0.3,0,0.6-0.2,0.7-0.5l0.6-1.4C16.7,0.7,16.5,0.2,16.2,0.1z" />
</svg>
