<svg xmlns="http://www.w3.org/2000/svg" viewBox="0 0 24 24">
	<path class="color-raster" d="M22.45,8.23l-3.38,1.23c-0.36,0.13-0.55,0.54-0.42,0.9c0.1,0.28,0.37,0.46,0.66,0.4
c0.08,0,0.16-0.01,0.24-0.04l3.38-1.23c0.36-0.13,0.55-0.54,0.42-0.9c-0.1-0.28-0.37-0.46-0.66-0.46C22.61,8.18,22.53,8.2,22.45,8.23z" />
	<path class="color-raster" d="M19.55,16.77l3.38-1.23c0.36-0.13,0.55-0.54,0.42-0.9c-0.1-0.28-0.37-0.46-0.66-0.46c-0.08,0-0.16,0.01-0.24,0.04l-3.38,1.23c-0.36,0.13-0.55,0.54-0.42,0.9c0.1,0.28,0.37,0.46,0.66,0.46C19.39,16.82,19.47,16.8,19.55,16.77z" />
	<path class="color-raster" d="M15.77,21.45l-1.23-3.38c-0.1-0.28-0.37-0.46-0.66-0.46c-0.08,0-0.16,0.01-0.24,0.04c-0.36,0.13-0.55,0.54-0.42,0.9l1.23,3.38c0.1,0.28,0.37,0.46,0.66,0.46c0.08,0,0.16-0.01,0.24-0.04C15.72,22.22,15.91,21.81,15.77,21.45z" />
	<path class="color-raster" d="M14.64,1.65c-0.36,0.13-0.55,0.54-0.42,0.9l1.23,3.38c0.1,0.28,0.37,0.46,0.66,0.46c0.08,0,0.16-0.01,0.24-0.04c0.36-0.13,0.55-0.54,0.42-0.9l-1.23-3.38c-0.1-0.28-0.37-0.46-0.66-0.46C14.8,1.61,14.72,1.62,14.64,1.65z" />
	<path class="color-raster" d="M9.77,21.45l-1.23-3.38c-0.1-0.28-0.37-0.46-0.66-0.46c-0.08,0-0.16,0.01-0.24,0.04c-0.36,0.13-0.55,0.54-0.42,0.9l1.23,3.38c0.1,0.28,0.37,0.46,0.66,0.46c0.08,0,0.16-0.01,0.24-0.04C9.72,22.22,9.91,21.81,9.77,21.45z" />
	<path class="color-raster" d="M1.55,15.77l3.38-1.23c0.36-0.13,0.55-0.54,0.42-0.9c-0.1-0.28-0.37-0.46-0.66-0.46c-0.08,0-0.16,0.01-0.24,0.04l-3.38,1.23c-0.36,0.13-0.55,0.54-0.42,0.9c0.1,0.28,0.37,0.46,0.66,0.46C1.39,15.82,1.47,15.8,1.55,15.77z" />
	<path class="color-raster" d="M8.64,1.65c-0.36,0.13-0.55,0.54-0.42,0.9l1.23,3.38c0.1,0.28,0.37,0.46,0.66,0.46c0.08,0,0.16-0.01,0.24-0.04c0.36-0.13,0.55-0.54,0.42-0.9L9.54,2.07c-0.1-0.28-0.37-0.46-0.66-0.46C8.8,1.61,8.72,1.62,8.64,1.65z" />
	<path class="color-raster" d="M4.45,7.23L1.07,8.46c-0.36,0.13-0.55,0.54-0.42,0.9c0.1,0.28,0.37,0.46,0.66,0.46c0.08,0,0.16-0.01,0.24-0.04l3.38-1.23c0.36-0.13,0.55-0.54,0.42-0.9c-0.1-0.28-0.37-0.46-0.66-0.46C4.61,7.18,4.53,7.2,4.45,7.23z" />
	<path d="M20.03,18.09c-0.23,0.08-0.47,0.13-0.72,0.13c-0.88,0-1.67-0.56-1.98-1.38c-0.19-0.53-0.17-1.1,0.07-1.61c0.24-0.51,0.66-0.89,1.18-1.09L21,13.27v-1.53l-0.97,0.35c-0.23,0.08-0.47,0.13-0.72,0.13c-0.88,0-1.67-0.56-1.98-1.38c-0.4-1.09,0.17-2.3,1.26-2.69L21,7.27V6c0-1.1-0.9-2-2-2h-1.27l0.35,0.97c0.4,1.09-0.17,2.3-1.26,2.69c-0.23,0.08-0.47,0.13-0.72,0.13c-0.88,0-1.67-0.56-1.98-1.38L13.27,4h-1.53l0.35,0.97c0.4,1.09-0.17,2.3-1.26,2.69c-0.23,0.08-0.47,0.13-0.72,0.13c-0.88,0-1.67-0.56-1.98-1.38L7.27,4H5C3.9,4,3,4.9,3,6v0.27l0.97-0.35C4.2,5.83,4.44,5.78,4.69,5.78c0.88,0,1.67,0.56,1.98,1.38c0.19,0.53,0.17,1.1-0.07,1.61C6.36,9.28,5.94,9.67,5.41,9.86L3,10.73v1.53l0.97-0.35c0.23-0.08,0.47-0.13,0.72-0.13c0.88,0,1.67,0.56,1.98,1.38c0.19,0.53,0.17,1.1-0.07,1.61c-0.24,0.51-0.66,0.89-1.18,1.09L3,16.73V18c0,1.1,0.9,2,2,2h1.27l-0.35-0.97c-0.4-1.09,0.17-2.3,1.26-2.69c0.23-0.08,0.47-0.13,0.72-0.13c0.88,0,1.67,0.56,1.98,1.38L10.73,20h1.53l-0.35-0.97c-0.4-1.09,0.17-2.3,1.26-2.69c0.23-0.08,0.47-0.13,0.72-0.13c0.88,0,1.67,0.56,1.98,1.38L16.73,20H19c1.1,0,2-0.9,2-2v-0.27L20.03,18.09z" />
</svg>
