<svg xmlns="http://www.w3.org/2000/svg" viewBox="0 0 24 24">
	<path class="color-raster" d="M13,11c-1.5-1.5-3.83-2.17-4.5-1.5l-2.48,2.48c1.16,0.27,2.49,1.08,3.71,2.29	c1.26,1.26,2.04,2.56,2.29,3.71l2.48-2.48C15.17,14.83,14.5,12.5,13,11z" />
	<path class="color-raster" d="M22.5,1.5c-1-1-2.5-1.5-3-1l-8,8c1.33,0,4,2.67,4,4l8-8C24,4,23.5,2.5,22.5,1.5z M17.77,7.23l-1.55,1.55c-0.13,0.13-0.33,0.13-0.45,0l-0.55-0.55c-0.13-0.13-0.13-0.33,0-0.45l1.55-1.55c0.13-0.13,0.33-0.13,0.45,0l0.55,0.55C17.9,6.9,17.9,7.1,17.77,7.23z" />
	<path d="M8.74,15.26c-1.67-1.67-3.55-2.45-4.29-1.71c-0.73,0.73,0.04,2.61,1.71,4.29	c1.67,1.67,3.55,2.45,4.29,1.71C11.19,18.81,10.41,16.93,8.74,15.26z" />
	<path d="M2.5,22.25c-0.19,0-0.38-0.07-0.53-0.22c-0.29-0.29-0.29-0.77,0-1.06l2-2c0.29-0.29,0.77-0.29,1.06,0s0.29,0.77,0,1.06l-2,2C2.88,22.18,2.69,22.25,2.5,22.25z" />
	<path d="M7,23.75c-0.06,0-0.12-0.01-0.18-0.02c-0.4-0.1-0.65-0.51-0.55-0.91l0.5-2c0.1-0.4,0.5-0.65,0.91-0.55c0.4,0.1,0.65,0.51,0.55,0.91l-0.5,2C7.64,23.52,7.34,23.75,7,23.75z" />
	<path d="M1,17.75c-0.34,0-0.64-0.23-0.73-0.57c-0.1-0.4,0.14-0.81,0.55-0.91l2-0.5c0.4-0.1,0.81,0.14,0.91,0.55c0.1,0.4-0.14,0.81-0.55,0.91l-2,0.5C1.12,17.74,1.06,17.75,1,17.75z" />
</svg>
