<svg xmlns="http://www.w3.org/2000/svg" viewBox="0 0 24 24">
	<path class="color-raster" d="M19.47,14.93c0.06,0.95-0.01,1.86-0.21,2.7l1.48,2.97h-3c-0.48,0.55-1.06,1.02-1.72,1.4H23L19.47,14.93z" />
	<path class="color-raster" d="M6.27,20.6h-3l1.48-2.97c-0.21-0.84-0.27-1.75-0.21-2.7L1,22h6.99C7.33,21.62,6.75,21.15,6.27,20.6z" />
	<path d="M16.4,9.91C14.53,6.79,13,3.97,12,2.07c-1,1.9-2.53,4.72-4.4,7.84c-1.88,3.15-2.23,6.57-0.89,8.92C7.72,20.62,9.6,21.6,12,21.6s4.28-0.98,5.29-2.77C18.62,16.48,18.28,13.06,16.4,9.91z M9.4,11.5c0.6,6.5,3.6,8,3.6,8C5,20,9.4,11.5,9.4,11.5z" />
</svg>
