<svg xmlns="http://www.w3.org/2000/svg" viewBox="0 0 24 24">
	<path d="M12,6l-6,6l6,6l6-6L12,6z M9,13c-0.55,0-1-0.45-1-1c0-0.55,0.45-1,1-1s1,0.45,1,1C10,12.55,9.55,13,9,13z M12,16c-0.55,0-1-0.45-1-1c0-0.55,0.45-1,1-1s1,0.45,1,1C13,15.55,12.55,16,12,16z M12,13c-0.55,0-1-0.45-1-1c0-0.55,0.45-1,1-1s1,0.45,1,1C13,12.55,12.55,13,12,13z M12,10c-0.55,0-1-0.45-1-1c0-0.55,0.45-1,1-1s1,0.45,1,1C13,9.55,12.55,10,12,10z M15,13c-0.55,0-1-0.45-1-1c0-0.55,0.45-1,1-1s1,0.45,1,1C16,12.55,15.55,13,15,13z" />
	<path class="color-raster" d="M1,17c0,0-1,3,1,5s5,1,5,1l4-4l-6-6L1,17z" />
	<path class="color-raster" d="M22,2c-2-2-5-1-5-1l-4,4l6,6l4-4C23,7,24,4,22,2z" />
</svg>
