<svg xmlns="http://www.w3.org/2000/svg" viewBox="0 0 24 24">
	<path d="M21.98,15.79c-0.12-0.54-0.65-0.89-1.19-0.77c-0.08,0.02-2.09,0.46-4.39,2.18c-0.77,0.57-1.4,1.09-1.99,1.57c-1.21,0.99-2.17,1.78-3.69,2.47c-0.59,0.27-1.84,0.72-3.57,0.75l-3.61,1.55C4.68,23.84,5.81,24,6.94,24c0.02,0,0.05,0,0.07,0c2.2-0.01,3.8-0.59,4.55-0.94c1.75-0.8,2.85-1.7,4.13-2.75c0.56-0.46,1.17-0.96,1.91-1.51c1.93-1.44,3.6-1.82,3.61-1.82C21.75,16.86,22.09,16.33,21.98,15.79z" />
	<path class="color-vector" d="M18.5,5.5c-1-1-2.5-1.5-3-1L5,15c0.39,0.24,1.23,0.1,1.59,0.38c0.36,0.28,0.3,1.06,0.63,1.4c0.33,0.33,1.11,0.28,1.4,0.63C8.9,17.77,8.76,18.61,9,19L19.5,8.5C20,8,19.5,6.5,18.5,5.5z M16.5,7.5l-7,7c-0.14,0.14-0.32,0.21-0.5,0.21s-0.36-0.07-0.5-0.21c-0.28-0.28-0.28-0.72,0-1l7-7c0.28-0.28,0.72-0.28,1,0C16.78,6.78,16.78,7.22,16.5,7.5z" />
	<path d="M7.35,18.47l-2.39,1.71c-0.1-0.27-0.22-0.51-0.42-0.71c-0.2-0.2-0.44-0.32-0.71-0.42l1.71-2.39C5.14,16.61,4.5,16.42,4,16l-3,7l7-3C7.58,19.5,7.39,18.86,7.35,18.47z" />
	<path d="M21.99,2.01C21,1,19.5,0.5,19,1l-2,2c2,0,4,2,4,4l2-2C23.5,4.5,22.98,3.02,21.99,2.01z" />
</svg>
