<svg xmlns="http://www.w3.org/2000/svg" viewBox="0 0 24 24">
	<path class="color-vector" d="M22.47,4.86C21.91,3.14,19.23,1.15,17.26,1c-3.4,0.35-6.56,2.34-6.32,4.93c0.14-0.29,0.31-0.57,0.53-0.84c0.17-0.21,0.39-0.37,0.63-0.46c0.61-0.23,1.23-0.35,1.86-0.35c1.61,0,3.22,0.8,4.43,2.2c1.07,1.24,1.62,2.72,1.45,3.87c-0.04,0.26-0.14,0.5-0.3,0.7c-0.3,0.38-0.68,0.68-1.11,0.91C22.67,12.01,22.59,6.63,22.47,4.86z" />
	<path d="M12.63,6.03c-3.51,2.79-7.69,5.59-7.81,6.45C4.48,15,1,21,1,22l6.49-7.21c-0.21-0.55-0.08-1.24,0.38-1.77c0.63-0.73,1.65-0.88,2.28-0.34c0.63,0.54,0.62,1.58-0.02,2.3c-0.41,0.47-0.98,0.7-1.51,0.65L2,23c1,0,7.12-4.65,10.48-4.78c0.33-0.01,3.71-4.64,5.87-8.09C18.59,8.47,15.81,4.74,12.63,6.03z" />
</svg>
