<svg xmlns="http://www.w3.org/2000/svg" viewBox="0 0 24 24">
	<path d="M12.94,5.12c1.37-0.78,3.61-1.54,7.22-2.13l-0.32-1.97c-3.88,0.63-6.69,1.54-8.5,2.76C12.01,4.05,12.56,4.52,12.94,5.12z" />
	<path d="M11.06,18.88c-1.37,0.78-3.61,1.54-7.22,2.13l0.32,1.97c3.88-0.63,6.69-1.54,8.5-2.76C12,19.95,11.44,19.48,11.06,18.88z" />
	<path d="M11.8,9.99c-0.53,0.32-1.14,0.51-1.8,0.51c-0.08,0-0.16-0.02-0.24-0.02c0.42,0.74,0.94,1.45,1.44,2.12c0.36,0.48,0.7,0.95,1,1.41c0.53-0.32,1.14-0.51,1.8-0.51c0.08,0,0.16,0.02,0.24,0.02c-0.42-0.74-0.94-1.45-1.44-2.12C12.44,10.92,12.1,10.45,11.8,9.99z" />
	<circle class="color-vector" cx="14" cy="17" r="2" />
	<circle class="color-vector" cx="10" cy="7" r="2" />
</svg>
