<svg xmlns="http://www.w3.org/2000/svg" width="1024" height="1024">
  <path fill="#ffffff" d="M.0007 659.5456c.0027 11.3936.0161 22.786.0834 34.1805.069 11.996.207 23.99.533 35.983.708 26.133 2.246 52.494 6.892 78.337 4.712 26.218 12.404 50.618 24.528 74.438 11.918 23.413 27.489 44.837 46.066 63.413 18.576 18.577 40.001 34.149 63.413 46.066 23.82 12.125 48.22 19.816 74.438 24.529 25.843 4.645 52.204 6.183 78.337 6.892 11.993.325 23.987.463 35.983.532 14.243.084 28.483.084 42.726.084h278c14.243 0 28.483 0 42.726-.084 11.996-.069 23.99-.207 35.983-.532 26.134-.709 52.494-2.247 78.338-6.892 26.217-4.713 50.617-12.404 74.437-24.529 23.413-11.917 44.837-27.489 63.414-46.066 18.576-18.576 34.148-40 46.065-63.413 12.125-23.82 19.816-48.22 24.529-74.438 4.645-25.843 6.183-52.204 6.892-78.337.325-11.993.463-23.987.532-35.983.084-14.243.084-28.483.084-42.726V373c0-14.243 0-28.483-.084-42.726-.069-11.996-.207-23.99-.532-35.983-.709-26.133-2.247-52.494-6.892-78.337-4.713-26.218-12.404-50.618-24.529-74.438-11.917-23.412-27.489-44.837-46.065-63.413-18.577-18.577-40.001-34.149-63.414-46.066-23.82-12.124-48.22-19.816-74.437-24.528-25.844-4.646-52.204-6.184-78.338-6.893-11.993-.325-23.987-.463-35.983-.532C679.483 0 665.243 0 651 0c0 0-275.1519-.002-286.5455.0007-11.3936.0027-22.7861.0161-34.1805.0834-11.996.069-23.99.207-35.983.532-26.133.709-52.494 2.247-78.337 6.893-26.218 4.712-50.618 12.404-74.438 24.528-23.412 11.917-44.837 27.489-63.413 46.066-18.577 18.576-34.148 40.001-46.066 63.413-12.124 23.82-19.816 48.22-24.528 74.438-4.646 25.843-6.184 52.204-6.892 78.337-.326 11.993-.464 23.987-.533 35.983C0 344.517 0 358.757 0 373"/>
  <path fill="#f1decd" d="m789.9503 428.9507-135.005-233.833c-5.642-8.618-15.035-14.043-25.327-14.632h-270.01c-10.292.589-19.685 6.014-25.327 14.632l-135.036 233.833c-4.619 9.207-4.619 20.026 0 29.233l135.036 233.864c5.642 8.618 15.035 14.043 25.327 14.601h270.01c10.292-.558 19.685-5.983 25.327-14.601l135.036-233.864c4.588-9.207 4.588-20.026-.031-29.233Z"/>
  <path fill="#3ea8ff" d="m693.8813 243.5087-42.346-73.315h-235.879l200.818 346.301 176.979-100.502-99.572-172.484Z"/>
  <path fill="#2180ce" d="m552.5523 325.0697-89.373-154.876h-121.148l-37.355 51.832 106.609 184.605 95.604 165.664 142.383-79.732-96.72-167.493Z"/>
  <path fill="#deba92" d="m800.4283 428.0827-166.532 81.282 205.53 312.542-38.998-393.824Z"/>
  <path fill="#d49b64" d="m653.4263 499.7547-141.298 81.592 290.098 176.111-148.8-257.703Z"/>
  <path fill="#473a3a" d="m870.2712 818.8377-.217-2.139c-2.666-29.109-34.565-376.278-34.658-377.766-.713-8.804-3.317-17.36-7.595-25.079-.093-.279-.217-.527-.341-.775l-.186-.465-.093.093-.062-.031.124-.062-36.58-63.364-102.889-178.25c-11.098-19.189-31.558-31-53.723-31h-278.969c-22.134 0-42.594 11.811-53.692 31l-139.5 241.583c-11.067 19.189-11.067 42.811 0 62l139.5 241.583c11.067 19.189 31.527 31 53.692 31h278.969c11.966-.093 23.653-3.689 33.635-10.292l119.629 85.808c-21.607-6.758-43.958-10.757-66.557-11.873-56.141-2.697-220.72-.868-407.402 14.353-76.601 6.231-112.809 24.428-108.593 27.993 10.819 9.238 23.622 12.896 87.42 12.648 56.792-.186 222.115 5.921 272.056 8.99 35.371 2.201 72.571 8.928 99.324 9.207 28.52-.372 56.947-2.542 85.188-6.51 42.594-5.859 99.076-17.67 112.065-33.387 6.851-6.51 10.354-15.841 9.455-25.265Zm-522.939-603.446c5.177-7.905 13.795-12.896 23.25-13.423h247.969c9.424.527 18.011 5.487 23.219 13.361l103.106 178.591c-15.469 16.12-28.892 34.1-39.959 53.506l-76.7869 8.525-45.787 62.248c-22.351-.124-44.64 2.542-66.34 7.874l-174.003-301.413 5.332-9.269Zm23.25 469.774c-9.455-.527-18.073-5.518-23.25-13.423l-124-214.737c-4.247-8.432-4.247-18.414 0-26.846l82.863-143.468 184.76 320.044.124-.062c2.139 3.844 5.084 7.161 8.649 9.765l95.883 68.758-225.029-.031Zm361.956 21.917-179.49-128.743c19.809-4.309 40.021-6.479 60.295-6.479l45.7871-62.217 76.787-8.525c10.106-17.546 22.103-33.945 35.712-48.949l21.793 219.79c-25.792-2.759-50.406 11.439-60.884 35.123Zm-325.841-87.482c4.619 7.223 2.48 16.802-4.712 21.421-7.223 4.619-16.802 2.48-21.421-4.712-.248-.372-.465-.775-.682-1.178l-108.5-187.891c-4.619-7.223-2.48-16.802 4.712-21.421 7.223-4.619 16.802-2.48 21.421 4.712.248.372.465.775.682 1.178l108.5 187.891Z"/>
</svg>
