<svg viewBox="0 0 16 16" xmlns="http://www.w3.org/2000/svg">
	<path d="M10.43,9.65c7.82-3.53,2.77-8.99-1.77-8.64S0.83,4.86,1.62,9.34c0.76,4.33,6.79,6.72,8.76,5.2C12.4,12.98,6.85,11.27,10.43,9.65 M11.55,3.17c0.59,0,1.07,0.47,1.08,1.06S12.16,5.3,11.57,5.3c-0.59,0-1.07-0.47-1.08-1.06c0,0,0,0,0,0C10.49,3.65,10.96,3.17,11.55,3.17 M4.06,9.91c-0.59,0-1.07-0.47-1.07-1.06c0-0.59,0.47-1.07,1.06-1.07c0.59,0,1.07,0.47,1.07,1.06C5.13,9.42,4.65,9.91,4.06,9.91C4.06,9.91,4.06,9.91,4.06,9.91 M4.82,6.51c-0.59,0-1.07-0.47-1.07-1.06s0.47-1.07,1.06-1.07c0.59,0,1.07,0.47,1.07,1.06c0,0,0,0,0,0C5.89,6.03,5.41,6.51,4.82,6.51 M7.87,4.47C7.28,4.48,6.8,4,6.79,3.41s0.47-1.07,1.06-1.08c0.59,0,1.07,0.47,1.08,1.06c0,0,0,0,0,0C8.93,3.99,8.46,4.47,7.87,4.47" />
</svg>
