<svg viewBox="0 0 16 16" xmlns="http://www.w3.org/2000/svg">
	<path d="M9.6,13.6C9.5,14.5,8.7,15,8,15c-0.5,0-1-0.2-1.3-0.6L9.6,13.6z M6.3,12.5c0,0.3,0,0.6,0.1,1c0,0,0,0,0,0.1l3.3-0.8c0-0.5,0.1-0.8,0.1-1.1L6.3,12.5z M8,2c2.3,0,4.1,1.9,4.1,4.2c0,2.5-1.5,3.1-2.1,4.5c0,0,0,0.1,0,0.1l-3.8,0.9c-0.1-0.4-0.2-0.7-0.3-1C5.4,9.3,3.9,8.7,3.9,6.2c0,0,0,0,0,0C3.9,3.9,5.7,2,8,2C8,2,8,2,8,2z M8.2,8.9C8,8.7,7.3,9.2,7.1,9.5c-0.2,0.3-0.2,0.7,0.1,1c0.5,0.1,0.9,0,1.2-0.4C8.6,9.7,8.6,9.2,8.2,8.9z M8.2,8c0.3-0.7,1.2-4.7,1.2-4.7C8.2,2.7,7.1,4.2,7.1,4.2C7,5.5,7.1,6.8,7.2,8.1C7.6,8.2,7.9,8.1,8.2,8L8.2,8z" />
</svg>
