<svg viewBox="0 0 16 16" xmlns="http://www.w3.org/2000/svg">
	<polygon points="3,1 1,1 0,1 0,2 0,4 1,4 1,2 3,2" />
	<polygon points="15,1 13,1 13,2 15,2 15,4 16,4 16,2 16,1" />
	<polygon points="1,14 1,12 0,12 0,14 0,15 1,15 3,15 3,14" />
	<polygon points="15,12 15,14 13,14 13,15 15,15 16,15 16,14 16,12" />
	<path d="M11,7h2c0.5,0,1-0.5,1-1V4c0-0.5-0.5-1-1-1h-2c-0.5,0-1,0.5-1,1v0.5L9.8,4.5C9.1,4.8,8.6,5.3,7.9,5.8C7.1,6.5,6.3,7.2,5,7.5V7c0-0.5-0.5-1-1-1H2C1.5,6,1,6.5,1,7v2c0,0.5,0.5,1,1,1h2c0.5,0,1-0.5,1-1V8.5c1.3,0.3,2.1,1,2.9,1.7c0.6,0.5,1.2,1,1.9,1.3l0.2,0.1V12c0,0.5,0.5,1,1,1h2c0.5,0,1-0.5,1-1v-2c0-0.5-0.5-1-1-1h-2c-0.5,0-1,0.5-1,1v0.5c-0.5-0.2-0.9-0.6-1.4-1C8,9,7.4,8.4,6.5,8C7.4,7.6,8,7,8.6,6.5c0.5-0.4,0.9-0.8,1.4-1V6C10,6.5,10.5,7,11,7z" />
</svg>
