<svg viewBox="0 0 16 16" xmlns="http://www.w3.org/2000/svg">
	<path d="M14,1h-1c0.23,0.28,0.37,0.63,0.4,1l0,0c0,0.77-0.63,1.4-1.4,1.4c-0.77,0-1.4-0.63-1.4-1.4c0.03-0.37,0.17-0.72,0.4-1H9.5c0.2,0.29,0.31,0.64,0.3,1l0,0c0,0.99-0.81,1.8-1.8,1.8S6.2,2.99,6.2,2c0.04-0.35,0.14-0.69,0.3-1H5.7C5.9,1.22,6.01,1.5,6,1.8C6.11,2.9,5.3,3.89,4.2,4C5.3,4.11,6.11,5.1,6,6.2C5.9,7.15,5.15,7.9,4.2,8C5.3,8.11,6.11,9.1,6,10.2c-0.1,0.95-0.85,1.7-1.8,1.8c0.97,0.07,1.73,0.83,1.8,1.8c0,0.42-0.11,0.83-0.3,1.2h0.8c-0.2-0.29-0.31-0.64-0.3-1c0-0.03,0-0.06,0-0.08c0-0.94,0.76-1.71,1.7-1.72c0,0,0,0,0,0h0.01c0.99,0,1.79,0.81,1.79,1.8c0,0,0,0,0,0c0.01,0.36-0.1,0.71-0.3,1H11c-0.23-0.28-0.37-0.63-0.4-1c0-0.77,0.63-1.4,1.4-1.4c0.77,0,1.4,0.63,1.4,1.4l0,0c-0.03,0.37-0.17,0.72-0.4,1h1c0.55,0,1-0.45,1-1V2C15,1.45,14.55,1,14,1 M9.8,10c0,0.99-0.81,1.79-1.8,1.79c-0.99,0-1.79-0.81-1.79-1.8C6.22,9,7.02,8.2,8.01,8.2C9,8.2,9.8,9,9.8,9.99V10 M9.8,6c0,0.99-0.81,1.79-1.8,1.79c-0.99,0-1.79-0.81-1.79-1.8C6.22,5,7.02,4.2,8.01,4.2C9,4.2,9.8,5,9.8,5.99V6 M13.4,10c0,0.77-0.63,1.4-1.4,1.4s-1.4-0.63-1.4-1.4c0-0.77,0.63-1.4,1.4-1.4c0,0,0,0,0,0c0.75-0.02,1.38,0.58,1.4,1.33C13.4,9.96,13.4,9.98,13.4,10 M13.4,6c0,0.77-0.63,1.4-1.4,1.4c-0.77,0-1.4-0.63-1.4-1.4c0-0.77,0.63-1.4,1.4-1.4c0.75-0.02,1.38,0.58,1.4,1.33C13.4,5.95,13.4,5.98,13.4,6 M3.8,8C3.04,8.09,2.39,8.59,2.1,9.3C1.91,8.75,1.52,8.28,1,8c0.52-0.28,0.91-0.75,1.1-1.3C2.39,7.41,3.04,7.91,3.8,8 M3.8,4C3.05,4.12,2.41,4.61,2.1,5.3C1.91,4.75,1.52,4.28,1,4c0.52-0.28,0.91-0.75,1.1-1.3C2.41,3.39,3.05,3.88,3.8,4 M3.8,12c-0.76,0.09-1.41,0.59-1.7,1.3C1.88,12.76,1.49,12.31,1,12c0.52-0.28,0.91-0.75,1.1-1.3C2.39,11.41,3.04,11.91,3.8,12" />
</svg>
