<svg viewBox="0 0 16 16" xmlns="http://www.w3.org/2000/svg">
	<path d="M9.49,11.76c-0.33,0.12-0.67,0.22-1,0.32c-0.42,1.03-1.26,1.87-2.35,2.24c-0.6,0.16-1.2,0.24-1.8,0.26c0.53,0.13,1.12,0.24,1.82,0.33c4.34,0.53,5.22-1.12,8.78-1.49C14.94,13.42,13.88,10.11,9.49,11.76z" />
	<path d="M7.79,10.64C7.72,9.55,6.82,8.69,5.73,8.68C4.77,8.64,3.9,9.34,3.25,10.8C2.77,11.73,1.97,12.45,1,12.83c1.47,0.79,3.2,0.99,4.81,0.55C6.98,12.98,7.77,11.88,7.79,10.64" />
	<path d="M14.03,2.23c-0.46-0.5-2.68,1.25-5.11,3.49C8.09,6.45,7.33,7.24,6.64,8.09c0.38,0.09,0.73,0.28,1.02,0.56c0.34,0.3,0.57,0.7,0.67,1.14c0.85-0.69,1.63-1.46,2.33-2.31C12.85,4.88,14.54,2.73,14.03,2.23" />
</svg>
