<svg xmlns="http://www.w3.org/2000/svg" width="48" height="48" viewBox="0 0 48 48"><path d="M 23.266606487952,10.891551813405 C 23.241210376669,11.242131135925 23.214823794618,11.592342364727 23.183130000000,11.941221000000 C 23.045180000000,13.459738600000 22.803730000000,14.970587600000 22.760980000000,16.494759600000 C 22.718231000000,18.018930600000 22.883941000000,19.579266600000 23.522336000000,20.963959600000 C 24.259429000000,22.562731600000 25.565181000000,23.812230600000 26.719710000000,25.141305600000 C 27.296975000000,25.805842600000 27.844762000000,26.502624600000 28.265863000000,27.275616600000 C 28.422265377890,27.562715552968 28.560873565170,27.861166712041 28.675300791057,28.167989727648 C 29.288800855435,28.097206627126 29.887174128990,27.883132379813 30.411058000000,27.554270000000 C 31.178424000000,27.072566000000 31.786462000000,26.352330000000 32.172971000000,25.532879000000 C 32.559480000000,24.713429000000 32.728239000000,23.798079000000 32.704109000000,22.892372000000 C 32.687742845722,22.278127144261 32.584110256756,21.668310646592 32.411170407833,21.078238369697 C 32.110085500625,21.100948582344 31.808339317964,21.111624271550 31.506153000000,21.105922600000 C 30.576010000000,21.088375600000 29.635934000000,20.909618600000 28.814144000000,20.473573600000 C 27.649574000000,19.855649600000 26.779204000000,18.726602600000 26.428817000000,17.455664600000 C 26.113609099469,16.312329662672 26.212685636737,15.068201465732 26.662104751556,13.969998805871 C 26.031960405898,13.443715870290 25.402236900479,12.916874419447 24.795803000000,12.363782000000 C 24.273978111081,11.887856436543 23.768478430330,11.391795433641 23.266606487952,10.891551813406 Z M 28.683573034585,31.836916050893 C 28.547072628365,32.222264275387 28.375291489832,32.596477157555 28.179529000000,32.954006600000 C 27.647917000000,33.924911600000 26.943826000000,34.788783600000 26.239063000000,35.642349600000 C 25.534301000000,36.495916600000 24.820923000000,37.350669600000 24.267061000000,38.309055600000 C 23.713200000000,39.267440600000 23.321645000000,40.345201600000 23.318945000000,41.452115600000 C 23.316956699015,42.273775084358 23.532990572276,43.090978400665 23.918910189214,43.817031056463 C 24.297385420630,43.666996914866 24.667650407866,43.496087690223 25.027440000000,43.304134000000 C 27.097852000000,42.199534000000 28.802186000000,40.387530000000 29.680167000000,38.211319000000 C 30.174702000000,36.985533000000 30.407104000000,35.623102000000 30.131382000000,34.330394000000 C 29.993521000000,33.684040000000 29.728744000000,33.062099000000 29.335636000000,32.530831000000 C 29.146515699660,32.275244446141 28.927321492883,32.041105330601 28.683573034590,31.836916050896 Z" style="fill:#ff0000;fill-opacity:1;stroke:#000000;stroke-width:2;stroke-linecap:round;stroke-linejoin:round;stroke-opacity:1" /></svg>