<svg xmlns="http://www.w3.org/2000/svg" viewBox="0 0 16 16">
	<path class="bright" d="M8,7c0,0.55-0.45,1-1,1l0,0C6.45,8,6,7.55,6,7V4.5c0-0.55,0.45-1,1-1l0,0c0.55,0,1,0.45,1,1V7z" />
	<path class="bright" d="M11,16c-0.18,0-0.36-0.1-0.45-0.28c-0.12-0.25-0.02-0.55,0.22-0.67C10.87,15.01,13,13.88,13,11V6c0-0.28,0.22-0.5,0.5-0.5S14,5.72,14,6v5c0,3.52-2.66,4.89-2.78,4.95C11.15,15.98,11.08,16,11,16z" />
	<path class="bright" d="M14.5,15c-0.13,0-0.26-0.05-0.35-0.15c-0.19-0.19-0.2-0.51,0-0.7C14.17,14.12,15,13.2,15,11V8c0-0.28,0.22-0.5,0.5-0.5S16,7.72,16,8v3c0,2.68-1.1,3.81-1.15,3.85C14.76,14.95,14.63,15,14.5,15z" />
	<path class="dim" d="M9,2c1.1,0,2,0.9,2,2v6c0,2.21-1.79,4-4,4s-4-1.79-4-4V4c0-1.1,0.9-2,2-2H9 M9,1H5C3.35,1,2,2.35,2,4v6c0,2.76,2.24,5,5,5s5-2.24,5-5V4C12,2.35,10.65,1,9,1L9,1z" />
</svg>